<svg width="24" height="24" viewBox="0 0 24 24" fill="none" xmlns="http://www.w3.org/2000/svg">
<path fill-rule="evenodd" clip-rule="evenodd" d="M3.94118 9.21317C4.10327 8.73682 4.30858 8.27565 4.55465 7.83531L1.98285 6.35048L1.23285 7.64952L3.94118 9.21317ZM2.12543 17.8349L4.78182 16.3012C5.0512 16.7282 5.35894 17.1302 5.7012 17.5025L2.87543 19.1339L2.12543 17.8349ZM18.2984 17.5023L21.0105 19.0681L21.7605 17.7691L19.2197 16.3022C18.9498 16.729 18.6414 17.1306 18.2984 17.5023ZM20.0576 9.21378L22.767 7.64952L22.017 6.35048L19.4443 7.83586C19.6905 8.27662 19.8957 8.73784 20.0576 9.21378ZM12.7504 3.53278V1H11.2504V3.53258C11.5511 3.50637 11.8537 3.4959 12.1568 3.50144C12.3553 3.50507 12.5533 3.51554 12.7504 3.53278Z" fill="#141414"/>
<path d="M12.0005 20H10.0032C9.85869 20 9.72011 19.9438 9.61796 19.8437C9.5158 19.7436 9.45842 19.6079 9.45842 19.4664V19.2173C9.45436 18.6672 9.32932 18.1244 9.09182 17.6259C8.85432 17.1274 8.5099 16.6849 8.08207 16.3285C7.33655 15.6989 6.76062 14.8993 6.40506 14.0001C6.04949 13.1009 5.92526 12.1299 6.04328 11.1725C6.16127 10.2152 6.51793 9.30106 7.08176 8.51063C7.64559 7.72023 8.39928 7.07787 9.27637 6.64022C10.1535 6.20256 11.127 5.98305 12.1112 6.00102C13.0953 6.01902 14.0598 6.27392 14.9196 6.74332C15.7795 7.21274 16.5082 7.88218 17.0416 8.6926C17.5749 9.50306 17.8965 10.4296 17.978 11.3906C18.0586 12.3069 17.917 13.2289 17.5649 14.0815C17.2127 14.934 16.66 15.693 15.9516 16.2965C15.5181 16.6571 15.1681 17.1041 14.9251 17.6079C14.6821 18.1115 14.5517 18.6603 14.5426 19.2173V19.4664C14.5426 19.6079 14.4852 19.7436 14.383 19.8437C14.2809 19.9438 14.1423 20 13.9978 20H12.0005ZM12.0005 20L12 12" stroke="#141414" stroke-width="1.5"/>
</svg>
