<svg width="70" height="65" viewBox="0 0 70 65" fill="none" xmlns="http://www.w3.org/2000/svg">
<path fill-rule="evenodd" clip-rule="evenodd" d="M28.7426 51.2642H20.8942V64.6737H23.0277V53.4542H26.6091V64.6737H28.7426V51.2642ZM40.9967 51.2642H33.1482V60.5146C33.1482 61.0499 33.0461 61.6264 32.6522 62.0083C32.3276 62.3227 31.9301 62.48 31.4852 62.48H31.2445V64.67H31.6748C32.6595 64.67 33.6223 64.4341 34.3372 63.7041C35.1395 62.8805 35.2818 61.3532 35.2818 60.2525V53.4542H38.8632V64.6737H40.9967V51.2642ZM46.7116 51.2642H44.5781V64.6737H46.7116V58.9048H50.293V60.9713C50.293 62.0944 50.5847 63.1201 51.3871 63.91C52.1712 64.6849 53.1377 64.9994 54.2172 64.9994C55.2967 64.9994 56.2632 64.6849 57.0473 63.91C57.846 63.1201 58.1414 62.0944 58.1414 60.9713V54.9666C58.1414 53.8435 57.846 52.8178 57.0473 52.0279C56.2632 51.2529 55.2967 50.9385 54.2172 50.9385C53.1377 50.9385 52.1712 51.2529 51.3871 52.0279C50.5884 52.8178 50.293 53.8435 50.293 54.9666V56.7148H46.7116V51.2642ZM54.2172 53.1285C54.7059 53.1285 55.1436 53.3044 55.49 53.6601C55.8365 54.0157 56.0079 54.4649 56.0079 54.9666V60.9713C56.0079 61.4729 55.8365 61.9222 55.49 62.2778C55.1436 62.6335 54.7059 62.8094 54.2172 62.8094C53.7285 62.8094 53.2909 62.6335 52.9444 62.2778C52.5979 61.9222 52.4265 61.4729 52.4265 60.9713V54.9666C52.4265 54.4649 52.5979 54.0157 52.9444 53.6601C53.2909 53.3044 53.7285 53.1285 54.2172 53.1285ZM69.2357 61.4355H67.0694C66.9928 61.75 66.8396 62.0345 66.6026 62.2778C66.2561 62.6335 65.8185 62.8094 65.3297 62.8094C64.841 62.8094 64.4034 62.6335 64.0569 62.2778C63.7105 61.9222 63.539 61.4729 63.539 60.9713V54.9666C63.539 54.4649 63.7105 54.0157 64.0569 53.6601C64.4034 53.3044 64.841 53.1285 65.3297 53.1285C65.8185 53.1285 66.2561 53.3044 66.6026 53.6601C66.8396 53.9034 66.9928 54.1879 67.0694 54.5024H69.2357C69.1628 53.5627 68.8491 52.7092 68.1598 52.0279C67.3757 51.2529 66.4093 50.9385 65.3297 50.9385C64.2502 50.9385 63.2838 51.2529 62.4996 52.0279C61.7009 52.8178 61.4055 53.8435 61.4055 54.9666V60.9713C61.4055 62.0944 61.7009 63.1201 62.4996 63.91C63.2838 64.6849 64.2502 64.9994 65.3297 64.9994C66.4093 64.9994 67.3757 64.6849 68.1598 63.91C68.8491 63.2324 69.1628 62.3752 69.2357 61.4355Z" fill="white"/>
<path fill-rule="evenodd" clip-rule="evenodd" d="M0.0036506 0.00374439H69.2391V47.6821H20.8976V37.5969C21.3571 37.4509 21.8166 37.0953 22.2798 36.047C22.7393 34.9988 22.9691 33.4864 22.9691 31.5061V6.12077H35.0517V37.5969H36.7768V44.676H32.8927V41.5614H20.8939L0 47.6784V0L0.0036506 0.00374439ZM63.2762 6.12077H57.1929C55.4387 6.12077 53.9908 6.68231 52.8566 7.80539C51.7187 8.92847 51.1534 10.4334 51.1534 12.3239V18.3473C51.1534 20.2079 51.5437 21.6118 52.3168 22.5551C53.0937 23.4985 54.1732 24.0601 55.5554 24.2398V24.7714C54.8369 24.8911 54.2097 25.0671 53.6772 25.3029C53.1447 25.5388 52.6925 25.8795 52.3168 26.3212C51.9412 26.7629 51.664 27.332 51.4744 28.0283C51.2884 28.7208 51.1936 29.5856 51.1936 30.6188V41.5614H55.508V30.5739C55.508 27.9759 56.4307 26.6768 58.2688 26.6768H58.9581V41.5614H63.2726V6.12077H63.2762ZM10.281 14.761V6.12077H5.96656V41.5614H9.85067L13.0017 30.2632L15.0732 19.01H15.5911L14.5554 31.2365V37.5932H18.8698V6.11703H16.2804C15.1863 6.11703 14.497 6.61867 14.2089 7.62195L12.265 14.7535L9.5042 30.1247H8.98631L10.281 14.7535V14.761ZM27.2835 28.7583C27.2835 30.0873 27.2252 31.2103 27.1121 32.1238C26.9954 33.0409 26.8459 33.8159 26.6599 34.4485C26.4739 35.0849 26.2478 35.5941 25.9888 35.9759C25.7299 36.3615 25.4564 36.6835 25.1682 36.9493V37.5932H30.7373V10.5494H27.2835V28.7583ZM49.0783 6.12077H38.7207V30.8547C38.7207 31.9778 39.0744 32.8987 39.7783 33.6249C40.4822 34.3475 41.4268 34.7106 42.6048 34.7106H49.0783V30.2819H44.2861C43.8557 30.2819 43.5384 30.1696 43.3378 29.9487C43.1372 29.7279 43.0351 29.4359 43.0351 29.084V22.3904H48.2139V17.9618H43.0351V10.5532H49.0783V6.12452V6.12077ZM49.0783 37.5969H38.8483V41.5614H49.0783V37.5969ZM57.1929 10.5532C56.7042 10.5532 56.2921 10.7216 55.9639 11.0623C55.632 11.403 55.4679 11.8223 55.4679 12.3239V19.5004C55.4679 20.5336 55.6685 21.3085 56.0733 21.8251C56.4745 22.3418 57.1528 22.6001 58.1011 22.6001H58.9654V10.5494H57.1966L57.1929 10.5532Z" fill="white"/>
</svg>
