<svg width="590" height="524" viewBox="0 0 590 524" fill="none" xmlns="http://www.w3.org/2000/svg">
<rect x="24" y="356" width="542" height="20" fill="#141414"/>
<rect x="512" y="24" width="6" height="332" fill="#141414"/>
<rect width="48" height="25" transform="translate(453 24)" fill="#141414"/>
<path d="M463.732 41.14C462.939 41.14 462.257 41.0047 461.688 40.734C461.119 40.454 460.68 40.0293 460.372 39.46C460.064 38.8813 459.891 38.158 459.854 37.29C459.845 36.8793 459.84 36.4873 459.84 36.114C459.84 35.7313 459.845 35.3347 459.854 34.924C459.891 34.0653 460.069 33.3513 460.386 32.782C460.713 32.2033 461.161 31.774 461.73 31.494C462.309 31.2047 462.976 31.06 463.732 31.06C464.497 31.06 465.165 31.2047 465.734 31.494C466.313 31.774 466.765 32.2033 467.092 32.782C467.419 33.3513 467.596 34.0653 467.624 34.924C467.643 35.3347 467.652 35.7313 467.652 36.114C467.652 36.4873 467.643 36.8793 467.624 37.29C467.596 38.158 467.423 38.8813 467.106 39.46C466.798 40.0293 466.359 40.454 465.79 40.734C465.221 41.0047 464.535 41.14 463.732 41.14ZM463.732 39.95C464.451 39.95 465.034 39.7353 465.482 39.306C465.939 38.8767 466.187 38.1813 466.224 37.22C466.243 36.8 466.252 36.4267 466.252 36.1C466.252 35.764 466.243 35.3907 466.224 34.98C466.205 34.336 466.084 33.8133 465.86 33.412C465.645 33.0107 465.356 32.7167 464.992 32.53C464.628 32.3433 464.208 32.25 463.732 32.25C463.275 32.25 462.864 32.3433 462.5 32.53C462.136 32.7167 461.842 33.0107 461.618 33.412C461.403 33.8133 461.282 34.336 461.254 34.98C461.245 35.3907 461.24 35.764 461.24 36.1C461.24 36.4267 461.245 36.8 461.254 37.22C461.291 38.1813 461.539 38.8767 461.996 39.306C462.453 39.7353 463.032 39.95 463.732 39.95ZM469.175 41C469.072 41 468.993 40.972 468.937 40.916C468.881 40.8507 468.853 40.7713 468.853 40.678V31.536C468.853 31.4333 468.881 31.354 468.937 31.298C468.993 31.2327 469.072 31.2 469.175 31.2H469.889C469.991 31.2 470.071 31.2327 470.127 31.298C470.192 31.354 470.225 31.4333 470.225 31.536V35.4H471.807L474.299 31.424C474.345 31.3493 474.406 31.2933 474.481 31.256C474.555 31.2187 474.653 31.2 474.775 31.2H475.531C475.633 31.2 475.708 31.228 475.755 31.284C475.801 31.34 475.825 31.4053 475.825 31.48C475.825 31.536 475.801 31.5967 475.755 31.662L473.067 35.946L476.021 40.51C476.049 40.5473 476.063 40.5987 476.063 40.664C476.063 40.7573 476.03 40.8367 475.965 40.902C475.909 40.9673 475.834 41 475.741 41H474.943C474.84 41 474.761 40.9813 474.705 40.944C474.658 40.8973 474.616 40.846 474.579 40.79L471.863 36.66H470.225V40.678C470.225 40.7713 470.192 40.8507 470.127 40.916C470.071 40.972 469.991 41 469.889 41H469.175ZM477.29 41C477.187 41 477.108 40.972 477.052 40.916C476.996 40.8507 476.968 40.7713 476.968 40.678V31.536C476.968 31.4333 476.996 31.354 477.052 31.298C477.108 31.2327 477.187 31.2 477.29 31.2H478.004C478.106 31.2 478.186 31.2327 478.242 31.298C478.307 31.354 478.34 31.4333 478.34 31.536V35.4H483.156V31.536C483.156 31.4333 483.184 31.354 483.24 31.298C483.305 31.2327 483.384 31.2 483.478 31.2H484.192C484.294 31.2 484.374 31.2327 484.43 31.298C484.495 31.354 484.528 31.4333 484.528 31.536V40.678C484.528 40.7713 484.495 40.8507 484.43 40.916C484.374 40.972 484.294 41 484.192 41H483.478C483.384 41 483.305 40.972 483.24 40.916C483.184 40.8507 483.156 40.7713 483.156 40.678V36.66H478.34V40.678C478.34 40.7713 478.307 40.8507 478.242 40.916C478.186 40.972 478.106 41 478.004 41H477.29ZM489.622 41.14C488.829 41.14 488.147 41.0047 487.578 40.734C487.009 40.454 486.57 40.0293 486.262 39.46C485.954 38.8813 485.781 38.158 485.744 37.29C485.735 36.8793 485.73 36.4873 485.73 36.114C485.73 35.7313 485.735 35.3347 485.744 34.924C485.781 34.0653 485.959 33.3513 486.276 32.782C486.603 32.2033 487.051 31.774 487.62 31.494C488.199 31.2047 488.866 31.06 489.622 31.06C490.387 31.06 491.055 31.2047 491.624 31.494C492.203 31.774 492.655 32.2033 492.982 32.782C493.309 33.3513 493.486 34.0653 493.514 34.924C493.533 35.3347 493.542 35.7313 493.542 36.114C493.542 36.4873 493.533 36.8793 493.514 37.29C493.486 38.158 493.313 38.8813 492.996 39.46C492.688 40.0293 492.249 40.454 491.68 40.734C491.111 41.0047 490.425 41.14 489.622 41.14ZM489.622 39.95C490.341 39.95 490.924 39.7353 491.372 39.306C491.829 38.8767 492.077 38.1813 492.114 37.22C492.133 36.8 492.142 36.4267 492.142 36.1C492.142 35.764 492.133 35.3907 492.114 34.98C492.095 34.336 491.974 33.8133 491.75 33.412C491.535 33.0107 491.246 32.7167 490.882 32.53C490.518 32.3433 490.098 32.25 489.622 32.25C489.165 32.25 488.754 32.3433 488.39 32.53C488.026 32.7167 487.732 33.0107 487.508 33.412C487.293 33.8133 487.172 34.336 487.144 34.98C487.135 35.3907 487.13 35.764 487.13 36.1C487.13 36.4267 487.135 36.8 487.144 37.22C487.181 38.1813 487.429 38.8767 487.886 39.306C488.343 39.7353 488.922 39.95 489.622 39.95Z" fill="white"/>
<rect width="87" height="25" transform="translate(436 401)" fill="#141414"/>
<path d="M443.54 418C443.437 418 443.358 417.972 443.302 417.916C443.246 417.851 443.218 417.771 443.218 417.678V408.536C443.218 408.433 443.246 408.354 443.302 408.298C443.358 408.233 443.437 408.2 443.54 408.2H444.254C444.357 408.2 444.436 408.233 444.492 408.298C444.557 408.354 444.59 408.433 444.59 408.536V412.4H446.172L448.664 408.424C448.711 408.349 448.771 408.293 448.846 408.256C448.921 408.219 449.019 408.2 449.14 408.2H449.896C449.999 408.2 450.073 408.228 450.12 408.284C450.167 408.34 450.19 408.405 450.19 408.48C450.19 408.536 450.167 408.597 450.12 408.662L447.432 412.946L450.386 417.51C450.414 417.547 450.428 417.599 450.428 417.664C450.428 417.757 450.395 417.837 450.33 417.902C450.274 417.967 450.199 418 450.106 418H449.308C449.205 418 449.126 417.981 449.07 417.944C449.023 417.897 448.981 417.846 448.944 417.79L446.228 413.66H444.59V417.678C444.59 417.771 444.557 417.851 444.492 417.916C444.436 417.972 444.357 418 444.254 418H443.54ZM454.341 418.14C453.548 418.14 452.867 418.005 452.297 417.734C451.728 417.454 451.289 417.029 450.981 416.46C450.673 415.881 450.501 415.158 450.463 414.29C450.454 413.879 450.449 413.487 450.449 413.114C450.449 412.731 450.454 412.335 450.463 411.924C450.501 411.065 450.678 410.351 450.995 409.782C451.322 409.203 451.77 408.774 452.339 408.494C452.918 408.205 453.585 408.06 454.341 408.06C455.107 408.06 455.774 408.205 456.343 408.494C456.922 408.774 457.375 409.203 457.701 409.782C458.028 410.351 458.205 411.065 458.233 411.924C458.252 412.335 458.261 412.731 458.261 413.114C458.261 413.487 458.252 413.879 458.233 414.29C458.205 415.158 458.033 415.881 457.715 416.46C457.407 417.029 456.969 417.454 456.399 417.734C455.83 418.005 455.144 418.14 454.341 418.14ZM454.341 416.95C455.06 416.95 455.643 416.735 456.091 416.306C456.549 415.877 456.796 415.181 456.833 414.22C456.852 413.8 456.861 413.427 456.861 413.1C456.861 412.764 456.852 412.391 456.833 411.98C456.815 411.336 456.693 410.813 456.469 410.412C456.255 410.011 455.965 409.717 455.601 409.53C455.237 409.343 454.817 409.25 454.341 409.25C453.884 409.25 453.473 409.343 453.109 409.53C452.745 409.717 452.451 410.011 452.227 410.412C452.013 410.813 451.891 411.336 451.863 411.98C451.854 412.391 451.849 412.764 451.849 413.1C451.849 413.427 451.854 413.8 451.863 414.22C451.901 415.181 452.148 415.877 452.605 416.306C453.063 416.735 453.641 416.95 454.341 416.95ZM459.784 418C459.681 418 459.602 417.972 459.546 417.916C459.49 417.851 459.462 417.771 459.462 417.678V408.536C459.462 408.433 459.49 408.354 459.546 408.298C459.602 408.233 459.681 408.2 459.784 408.2H460.498C460.6 408.2 460.68 408.233 460.736 408.298C460.801 408.354 460.834 408.433 460.834 408.536V412.4H465.65V408.536C465.65 408.433 465.678 408.354 465.734 408.298C465.799 408.233 465.878 408.2 465.972 408.2H466.686C466.788 408.2 466.868 408.233 466.924 408.298C466.989 408.354 467.022 408.433 467.022 408.536V417.678C467.022 417.771 466.989 417.851 466.924 417.916C466.868 417.972 466.788 418 466.686 418H465.972C465.878 418 465.799 417.972 465.734 417.916C465.678 417.851 465.65 417.771 465.65 417.678V413.66H460.834V417.678C460.834 417.771 460.801 417.851 460.736 417.916C460.68 417.972 460.6 418 460.498 418H459.784ZM468.924 418C468.822 418 468.742 417.972 468.686 417.916C468.63 417.851 468.602 417.771 468.602 417.678V408.536C468.602 408.433 468.63 408.354 468.686 408.298C468.742 408.233 468.822 408.2 468.924 408.2H472.76C473.46 408.2 474.03 408.317 474.468 408.55C474.916 408.774 475.243 409.082 475.448 409.474C475.663 409.866 475.77 410.305 475.77 410.79C475.77 411.173 475.705 411.504 475.574 411.784C475.453 412.055 475.299 412.279 475.112 412.456C474.926 412.624 474.744 412.755 474.566 412.848C474.93 413.025 475.252 413.315 475.532 413.716C475.822 414.117 475.966 414.603 475.966 415.172C475.966 415.685 475.85 416.157 475.616 416.586C475.383 417.015 475.033 417.361 474.566 417.622C474.109 417.874 473.54 418 472.858 418H468.924ZM469.974 416.866H472.676C473.283 416.866 473.75 416.703 474.076 416.376C474.403 416.049 474.566 415.648 474.566 415.172C474.566 414.677 474.403 414.271 474.076 413.954C473.75 413.627 473.283 413.464 472.676 413.464H469.974V416.866ZM469.974 412.344H472.55C473.148 412.344 473.6 412.209 473.908 411.938C474.216 411.658 474.37 411.28 474.37 410.804C474.37 410.328 474.216 409.964 473.908 409.712C473.6 409.46 473.148 409.334 472.55 409.334H469.974V412.344ZM477.436 418C477.333 418 477.254 417.972 477.198 417.916C477.142 417.851 477.114 417.771 477.114 417.678V408.536C477.114 408.433 477.142 408.354 477.198 408.298C477.254 408.233 477.333 408.2 477.436 408.2H483.218C483.321 408.2 483.4 408.233 483.456 408.298C483.512 408.354 483.54 408.433 483.54 408.536V409.068C483.54 409.171 483.512 409.25 483.456 409.306C483.4 409.362 483.321 409.39 483.218 409.39H478.458V412.456H482.91C483.013 412.456 483.092 412.489 483.148 412.554C483.204 412.61 483.232 412.689 483.232 412.792V413.31C483.232 413.403 483.204 413.483 483.148 413.548C483.092 413.604 483.013 413.632 482.91 413.632H478.458V416.81H483.33C483.433 416.81 483.512 416.838 483.568 416.894C483.624 416.95 483.652 417.029 483.652 417.132V417.678C483.652 417.771 483.624 417.851 483.568 417.916C483.512 417.972 483.433 418 483.33 418H477.436ZM485.086 418C484.983 418 484.904 417.972 484.848 417.916C484.792 417.851 484.764 417.771 484.764 417.678V408.536C484.764 408.433 484.792 408.354 484.848 408.298C484.904 408.233 484.983 408.2 485.086 408.2H485.8C485.903 408.2 485.982 408.233 486.038 408.298C486.103 408.354 486.136 408.433 486.136 408.536V412.4H487.718L490.21 408.424C490.257 408.349 490.317 408.293 490.392 408.256C490.467 408.219 490.565 408.2 490.686 408.2H491.442C491.545 408.2 491.619 408.228 491.666 408.284C491.713 408.34 491.736 408.405 491.736 408.48C491.736 408.536 491.713 408.597 491.666 408.662L488.978 412.946L491.932 417.51C491.96 417.547 491.974 417.599 491.974 417.664C491.974 417.757 491.941 417.837 491.876 417.902C491.82 417.967 491.745 418 491.652 418H490.854C490.751 418 490.672 417.981 490.616 417.944C490.569 417.897 490.527 417.846 490.49 417.79L487.774 413.66H486.136V417.678C486.136 417.771 486.103 417.851 486.038 417.916C485.982 417.972 485.903 418 485.8 418H485.086ZM495.343 418C495.25 418 495.171 417.972 495.105 417.916C495.049 417.851 495.021 417.771 495.021 417.678V409.446H492.333C492.24 409.446 492.161 409.418 492.095 409.362C492.039 409.297 492.011 409.217 492.011 409.124V408.536C492.011 408.433 492.039 408.354 492.095 408.298C492.161 408.233 492.24 408.2 492.333 408.2H499.081C499.184 408.2 499.263 408.233 499.319 408.298C499.385 408.354 499.417 408.433 499.417 408.536V409.124C499.417 409.217 499.385 409.297 499.319 409.362C499.263 409.418 499.184 409.446 499.081 409.446H496.407V417.678C496.407 417.771 496.375 417.851 496.309 417.916C496.253 417.972 496.174 418 496.071 418H495.343ZM503.661 418.14C502.867 418.14 502.186 418.005 501.617 417.734C501.047 417.454 500.609 417.029 500.301 416.46C499.993 415.881 499.82 415.158 499.783 414.29C499.773 413.879 499.769 413.487 499.769 413.114C499.769 412.731 499.773 412.335 499.783 411.924C499.82 411.065 499.997 410.351 500.315 409.782C500.641 409.203 501.089 408.774 501.659 408.494C502.237 408.205 502.905 408.06 503.661 408.06C504.426 408.06 505.093 408.205 505.663 408.494C506.241 408.774 506.694 409.203 507.021 409.782C507.347 410.351 507.525 411.065 507.553 411.924C507.571 412.335 507.581 412.731 507.581 413.114C507.581 413.487 507.571 413.879 507.553 414.29C507.525 415.158 507.352 415.881 507.035 416.46C506.727 417.029 506.288 417.454 505.719 417.734C505.149 418.005 504.463 418.14 503.661 418.14ZM503.661 416.95C504.379 416.95 504.963 416.735 505.411 416.306C505.868 415.877 506.115 415.181 506.153 414.22C506.171 413.8 506.181 413.427 506.181 413.1C506.181 412.764 506.171 412.391 506.153 411.98C506.134 411.336 506.013 410.813 505.789 410.412C505.574 410.011 505.285 409.717 504.921 409.53C504.557 409.343 504.137 409.25 503.661 409.25C503.203 409.25 502.793 409.343 502.429 409.53C502.065 409.717 501.771 410.011 501.547 410.412C501.332 410.813 501.211 411.336 501.183 411.98C501.173 412.391 501.169 412.764 501.169 413.1C501.169 413.427 501.173 413.8 501.183 414.22C501.22 415.181 501.467 415.877 501.925 416.306C502.382 416.735 502.961 416.95 503.661 416.95ZM509.103 418C509.001 418 508.921 417.972 508.865 417.916C508.809 417.851 508.781 417.771 508.781 417.678V408.536C508.781 408.433 508.809 408.354 508.865 408.298C508.921 408.233 509.001 408.2 509.103 408.2H512.659C513.35 408.2 513.947 408.312 514.451 408.536C514.965 408.76 515.361 409.096 515.641 409.544C515.921 409.983 516.061 410.533 516.061 411.196C516.061 411.859 515.921 412.409 515.641 412.848C515.361 413.287 514.965 413.618 514.451 413.842C513.947 414.066 513.35 414.178 512.659 414.178H510.181V417.678C510.181 417.771 510.149 417.851 510.083 417.916C510.027 417.972 509.948 418 509.845 418H509.103ZM510.167 413.002H512.589C513.28 413.002 513.798 412.848 514.143 412.54C514.489 412.232 514.661 411.784 514.661 411.196C514.661 410.617 514.493 410.169 514.157 409.852C513.821 409.535 513.299 409.376 512.589 409.376H510.167V413.002Z" fill="white"/>
<rect x="169" y="377" width="252" height="99" rx="7" stroke="white"/>
<path d="M512 79.5H396C389.373 79.5 384 84.8726 384 91.5V405.5C384 412.127 378.627 417.5 372 417.5H349.5" stroke="#1E679C" stroke-width="12"/>
<path d="M80.5 299.5H196.5C203.127 299.5 208.5 304.873 208.5 311.5V405.5C208.5 412.127 213.873 417.5 220.5 417.5H242" stroke="#1E679C" stroke-width="12"/>
<path d="M295 395V112" stroke="#DA3544" stroke-width="12"/>
<path d="M294.646 148.646C294.842 148.451 295.158 148.451 295.354 148.646L298.536 151.828C298.731 152.024 298.731 152.34 298.536 152.536C298.34 152.731 298.024 152.731 297.828 152.536L295 149.707L292.172 152.536C291.976 152.731 291.66 152.731 291.464 152.536C291.269 152.34 291.269 152.024 291.464 151.828L294.646 148.646ZM294.5 163V149H295.5V163H294.5Z" fill="white"/>
<path d="M208.646 368.354C208.842 368.549 209.158 368.549 209.354 368.354L212.536 365.172C212.731 364.976 212.731 364.66 212.536 364.464C212.34 364.269 212.024 364.269 211.828 364.464L209 367.293L206.172 364.464C205.976 364.269 205.66 364.269 205.464 364.464C205.269 364.66 205.269 364.976 205.464 365.172L208.646 368.354ZM208.5 354V368H209.5V354H208.5Z" fill="white"/>
<path d="M383.646 318.354C383.842 318.549 384.158 318.549 384.354 318.354L387.536 315.172C387.731 314.976 387.731 314.66 387.536 314.464C387.34 314.269 387.024 314.269 386.828 314.464L384 317.293L381.172 314.464C380.976 314.269 380.66 314.269 380.464 314.464C380.269 314.66 380.269 314.976 380.464 315.172L383.646 318.354ZM383.5 304V318H384.5V304H383.5Z" fill="white"/>
<path d="M383.646 188.354C383.842 188.549 384.158 188.549 384.354 188.354L387.536 185.172C387.731 184.976 387.731 184.66 387.536 184.464C387.34 184.269 387.024 184.269 386.828 184.464L384 187.293L381.172 184.464C380.976 184.269 380.66 184.269 380.464 184.464C380.269 184.66 380.269 184.976 380.464 185.172L383.646 188.354ZM383.5 174V188H384.5V174H383.5Z" fill="white"/>
<path d="M148.354 299.354C148.549 299.158 148.549 298.842 148.354 298.646L145.172 295.464C144.976 295.269 144.66 295.269 144.464 295.464C144.269 295.66 144.269 295.976 144.464 296.172L147.293 299L144.464 301.828C144.269 302.024 144.269 302.34 144.464 302.536C144.66 302.731 144.976 302.731 145.172 302.536L148.354 299.354ZM134 299.5H148V298.5H134V299.5Z" fill="white"/>
<path d="M444.646 79.3536C444.451 79.1583 444.451 78.8417 444.646 78.6464L447.828 75.4645C448.024 75.2692 448.34 75.2692 448.536 75.4645C448.731 75.6597 448.731 75.9763 448.536 76.1716L445.707 79L448.536 81.8284C448.731 82.0237 448.731 82.3403 448.536 82.5355C448.34 82.7308 448.024 82.7308 447.828 82.5355L444.646 79.3536ZM459 79.5H445V78.5H459V79.5Z" fill="white"/>
<path d="M294.646 284.646C294.842 284.451 295.158 284.451 295.354 284.646L298.536 287.828C298.731 288.024 298.731 288.34 298.536 288.536C298.34 288.731 298.024 288.731 297.828 288.536L295 285.707L292.172 288.536C291.976 288.731 291.66 288.731 291.464 288.536C291.269 288.34 291.269 288.024 291.464 287.828L294.646 284.646ZM294.5 299V285H295.5V299H294.5Z" fill="white"/>
<rect x="241" y="395" width="108" height="44" rx="7" stroke="white"/>
<path opacity="0.5" d="M403.54 109C403.476 109 403.416 108.976 403.36 108.928C403.312 108.88 403.288 108.824 403.288 108.76C403.288 108.728 403.292 108.7 403.3 108.676C403.316 108.644 403.328 108.62 403.336 108.604L406.084 104.728L403.468 100.996C403.444 100.948 403.432 100.896 403.432 100.84C403.432 100.776 403.456 100.72 403.504 100.672C403.552 100.624 403.608 100.6 403.672 100.6H404.392C404.472 100.6 404.536 100.62 404.584 100.66C404.632 100.692 404.676 100.74 404.716 100.804L406.828 103.804L408.928 100.804C408.96 100.74 409 100.692 409.048 100.66C409.104 100.62 409.168 100.6 409.24 100.6H409.924C409.988 100.6 410.044 100.624 410.092 100.672C410.14 100.72 410.164 100.776 410.164 100.84C410.164 100.896 410.148 100.948 410.116 100.996L407.536 104.74L410.272 108.604C410.288 108.62 410.3 108.644 410.308 108.676C410.316 108.7 410.32 108.728 410.32 108.76C410.32 108.824 410.296 108.88 410.248 108.928C410.2 108.976 410.14 109 410.068 109H409.336C409.264 109 409.2 108.98 409.144 108.94C409.096 108.9 409.052 108.856 409.012 108.808L406.78 105.688L404.56 108.808C404.52 108.856 404.476 108.9 404.428 108.94C404.38 108.98 404.316 109 404.236 109H403.54ZM413.93 109.12C413.25 109.12 412.666 109.004 412.178 108.772C411.69 108.532 411.314 108.168 411.05 107.68C410.786 107.184 410.638 106.564 410.606 105.82C410.598 105.468 410.594 105.132 410.594 104.812C410.594 104.484 410.598 104.144 410.606 103.792C410.638 103.056 410.79 102.444 411.062 101.956C411.342 101.46 411.726 101.092 412.214 100.852C412.71 100.604 413.282 100.48 413.93 100.48C414.586 100.48 415.158 100.604 415.646 100.852C416.142 101.092 416.53 101.46 416.81 101.956C417.09 102.444 417.242 103.056 417.266 103.792C417.282 104.144 417.29 104.484 417.29 104.812C417.29 105.132 417.282 105.468 417.266 105.82C417.242 106.564 417.094 107.184 416.822 107.68C416.558 108.168 416.182 108.532 415.694 108.772C415.206 109.004 414.618 109.12 413.93 109.12ZM413.93 108.1C414.546 108.1 415.046 107.916 415.43 107.548C415.822 107.18 416.034 106.584 416.066 105.76C416.082 105.4 416.09 105.08 416.09 104.8C416.09 104.512 416.082 104.192 416.066 103.84C416.05 103.288 415.946 102.84 415.754 102.496C415.57 102.152 415.322 101.9 415.01 101.74C414.698 101.58 414.338 101.5 413.93 101.5C413.538 101.5 413.186 101.58 412.874 101.74C412.562 101.9 412.31 102.152 412.118 102.496C411.934 102.84 411.83 103.288 411.806 103.84C411.798 104.192 411.794 104.512 411.794 104.8C411.794 105.08 411.798 105.4 411.806 105.76C411.838 106.584 412.05 107.18 412.442 107.548C412.834 107.916 413.33 108.1 413.93 108.1ZM423.674 109C423.594 109 423.526 108.976 423.47 108.928C423.422 108.872 423.398 108.804 423.398 108.724V101.68H420.422V103.612C420.422 104.572 420.37 105.392 420.266 106.072C420.162 106.744 420.002 107.292 419.786 107.716C419.57 108.132 419.29 108.444 418.946 108.652C418.61 108.852 418.202 108.964 417.722 108.988C417.642 108.996 417.574 108.972 417.518 108.916C417.462 108.86 417.434 108.788 417.434 108.7V108.172C417.434 108.012 417.518 107.92 417.686 107.896C417.934 107.856 418.154 107.748 418.346 107.572C418.546 107.396 418.714 107.136 418.85 106.792C418.986 106.44 419.09 105.992 419.162 105.448C419.234 104.896 419.27 104.236 419.27 103.468V100.876C419.27 100.796 419.294 100.732 419.342 100.684C419.398 100.628 419.466 100.6 419.546 100.6H424.286C424.374 100.6 424.442 100.628 424.49 100.684C424.546 100.732 424.574 100.8 424.574 100.888V108.724C424.574 108.804 424.546 108.872 424.49 108.928C424.442 108.976 424.374 109 424.286 109H423.674ZM428.955 109.12C428.275 109.12 427.691 109.004 427.203 108.772C426.715 108.532 426.339 108.168 426.075 107.68C425.811 107.184 425.663 106.564 425.631 105.82C425.623 105.468 425.619 105.132 425.619 104.812C425.619 104.484 425.623 104.144 425.631 103.792C425.663 103.056 425.815 102.444 426.087 101.956C426.367 101.46 426.751 101.092 427.239 100.852C427.735 100.604 428.307 100.48 428.955 100.48C429.611 100.48 430.183 100.604 430.671 100.852C431.167 101.092 431.555 101.46 431.835 101.956C432.115 102.444 432.267 103.056 432.291 103.792C432.307 104.144 432.315 104.484 432.315 104.812C432.315 105.132 432.307 105.468 432.291 105.82C432.267 106.564 432.119 107.184 431.847 107.68C431.583 108.168 431.207 108.532 430.719 108.772C430.231 109.004 429.643 109.12 428.955 109.12ZM428.955 108.1C429.571 108.1 430.071 107.916 430.455 107.548C430.847 107.18 431.059 106.584 431.091 105.76C431.107 105.4 431.115 105.08 431.115 104.8C431.115 104.512 431.107 104.192 431.091 103.84C431.075 103.288 430.971 102.84 430.779 102.496C430.595 102.152 430.347 101.9 430.035 101.74C429.723 101.58 429.363 101.5 428.955 101.5C428.563 101.5 428.211 101.58 427.899 101.74C427.587 101.9 427.335 102.152 427.143 102.496C426.959 102.84 426.855 103.288 426.831 103.84C426.823 104.192 426.819 104.512 426.819 104.8C426.819 105.08 426.823 105.4 426.831 105.76C426.863 106.584 427.075 107.18 427.467 107.548C427.859 107.916 428.355 108.1 428.955 108.1ZM432.852 110.668C432.772 110.668 432.704 110.644 432.648 110.596C432.6 110.548 432.576 110.48 432.576 110.392V108.196C432.576 108.116 432.6 108.052 432.648 108.004C432.704 107.948 432.772 107.92 432.852 107.92H433.104C433.296 107.92 433.464 107.832 433.608 107.656C433.752 107.48 433.872 107.212 433.968 106.852C434.072 106.484 434.148 106.02 434.196 105.46C434.244 104.9 434.268 104.236 434.268 103.468V100.876C434.268 100.796 434.292 100.732 434.34 100.684C434.396 100.628 434.464 100.6 434.544 100.6H439.224C439.312 100.6 439.38 100.628 439.428 100.684C439.484 100.732 439.512 100.8 439.512 100.888V107.92H440.1C440.188 107.92 440.256 107.948 440.304 108.004C440.36 108.052 440.388 108.116 440.388 108.196V110.392C440.388 110.472 440.36 110.536 440.304 110.584C440.256 110.64 440.188 110.668 440.1 110.668H439.488C439.4 110.668 439.332 110.64 439.284 110.584C439.236 110.536 439.212 110.472 439.212 110.392V109H433.752V110.392C433.752 110.472 433.724 110.536 433.668 110.584C433.62 110.64 433.552 110.668 433.464 110.668H432.852ZM434.64 107.92H438.336V101.68H435.42V103.612C435.42 104.748 435.352 105.664 435.216 106.36C435.088 107.056 434.896 107.576 434.64 107.92ZM441.396 109C441.308 109 441.24 108.976 441.192 108.928C441.144 108.872 441.12 108.804 441.12 108.724V100.888C441.12 100.8 441.144 100.732 441.192 100.684C441.24 100.628 441.308 100.6 441.396 100.6H442.008C442.096 100.6 442.164 100.628 442.212 100.684C442.268 100.732 442.296 100.8 442.296 100.888V104.2H446.424V100.888C446.424 100.8 446.448 100.732 446.496 100.684C446.552 100.628 446.62 100.6 446.7 100.6H447.312C447.4 100.6 447.468 100.628 447.516 100.684C447.572 100.732 447.6 100.8 447.6 100.888V108.724C447.6 108.804 447.572 108.872 447.516 108.928C447.468 108.976 447.4 109 447.312 109H446.7C446.62 109 446.552 108.976 446.496 108.928C446.448 108.872 446.424 108.804 446.424 108.724V105.28H442.296V108.724C442.296 108.804 442.268 108.872 442.212 108.928C442.164 108.976 442.096 109 442.008 109H441.396ZM449.23 109C449.142 109 449.074 108.976 449.026 108.928C448.978 108.872 448.954 108.804 448.954 108.724V100.876C448.954 100.796 448.978 100.732 449.026 100.684C449.074 100.628 449.142 100.6 449.23 100.6H449.842C449.93 100.6 449.998 100.628 450.046 100.684C450.102 100.732 450.13 100.796 450.13 100.876V103.792H451.666C452.538 103.792 453.21 104.012 453.682 104.452C454.162 104.884 454.402 105.52 454.402 106.36C454.402 106.816 454.302 107.248 454.102 107.656C453.91 108.056 453.61 108.38 453.202 108.628C452.794 108.876 452.282 109 451.666 109H449.23ZM450.13 107.992H451.57C452.09 107.992 452.49 107.84 452.77 107.536C453.058 107.232 453.202 106.832 453.202 106.336C453.202 105.824 453.066 105.44 452.794 105.184C452.522 104.92 452.114 104.788 451.57 104.788H450.13V107.992ZM455.83 109C455.742 109 455.674 108.976 455.626 108.928C455.578 108.872 455.554 108.804 455.554 108.724V100.876C455.554 100.796 455.578 100.732 455.626 100.684C455.674 100.628 455.742 100.6 455.83 100.6H456.466C456.546 100.6 456.61 100.628 456.658 100.684C456.714 100.732 456.742 100.796 456.742 100.876V108.724C456.742 108.804 456.714 108.872 456.658 108.928C456.61 108.976 456.546 109 456.466 109H455.83ZM458.389 109C458.301 109 458.233 108.972 458.185 108.916C458.137 108.86 458.113 108.792 458.113 108.712V100.888C458.113 100.8 458.137 100.732 458.185 100.684C458.241 100.628 458.309 100.6 458.389 100.6H459.013C459.093 100.6 459.157 100.628 459.205 100.684C459.261 100.732 459.289 100.8 459.289 100.888V107.092L463.765 100.768C463.789 100.736 463.821 100.7 463.861 100.66C463.909 100.62 463.977 100.6 464.065 100.6H464.653C464.733 100.6 464.797 100.628 464.845 100.684C464.901 100.732 464.929 100.8 464.929 100.888V108.724C464.929 108.804 464.901 108.872 464.845 108.928C464.797 108.976 464.733 109 464.653 109H464.041C463.961 109 463.893 108.976 463.837 108.928C463.781 108.872 463.753 108.804 463.753 108.724V102.568L459.289 108.832C459.273 108.856 459.241 108.892 459.193 108.94C459.145 108.98 459.077 109 458.989 109H458.389ZM461.485 100.12C461.005 100.12 460.629 100.048 460.357 99.904C460.093 99.76 459.905 99.576 459.793 99.352C459.681 99.12 459.625 98.88 459.625 98.632C459.625 98.568 459.645 98.516 459.685 98.476C459.725 98.428 459.781 98.404 459.853 98.404H460.273C460.345 98.404 460.401 98.428 460.441 98.476C460.481 98.516 460.501 98.568 460.501 98.632C460.501 98.752 460.525 98.868 460.573 98.98C460.629 99.092 460.729 99.188 460.873 99.268C461.017 99.34 461.221 99.376 461.485 99.376C461.757 99.376 461.961 99.34 462.097 99.268C462.241 99.188 462.337 99.092 462.385 98.98C462.441 98.868 462.469 98.752 462.469 98.632C462.469 98.568 462.489 98.516 462.529 98.476C462.569 98.428 462.625 98.404 462.697 98.404H463.117C463.189 98.404 463.245 98.428 463.285 98.476C463.325 98.516 463.345 98.568 463.345 98.632C463.345 98.88 463.289 99.12 463.177 99.352C463.065 99.576 462.873 99.76 462.601 99.904C462.337 100.048 461.965 100.12 461.485 100.12ZM404.32 123C404.232 123 404.164 122.976 404.116 122.928C404.068 122.872 404.044 122.804 404.044 122.724V114.888C404.044 114.8 404.068 114.732 404.116 114.684C404.164 114.628 404.232 114.6 404.32 114.6H407.608C408.208 114.6 408.696 114.7 409.072 114.9C409.456 115.092 409.736 115.356 409.912 115.692C410.096 116.028 410.188 116.404 410.188 116.82C410.188 117.148 410.132 117.432 410.02 117.672C409.916 117.904 409.784 118.096 409.624 118.248C409.464 118.392 409.308 118.504 409.156 118.584C409.468 118.736 409.744 118.984 409.984 119.328C410.232 119.672 410.356 120.088 410.356 120.576C410.356 121.016 410.256 121.42 410.056 121.788C409.856 122.156 409.556 122.452 409.156 122.676C408.764 122.892 408.276 123 407.692 123H404.32ZM405.22 122.028H407.536C408.056 122.028 408.456 121.888 408.736 121.608C409.016 121.328 409.156 120.984 409.156 120.576C409.156 120.152 409.016 119.804 408.736 119.532C408.456 119.252 408.056 119.112 407.536 119.112H405.22V122.028ZM405.22 118.152H407.428C407.94 118.152 408.328 118.036 408.592 117.804C408.856 117.564 408.988 117.24 408.988 116.832C408.988 116.424 408.856 116.112 408.592 115.896C408.328 115.68 407.94 115.572 407.428 115.572H405.22V118.152ZM414.352 123.12C413.672 123.12 413.088 123.004 412.6 122.772C412.112 122.532 411.736 122.168 411.472 121.68C411.208 121.184 411.06 120.564 411.028 119.82C411.02 119.468 411.016 119.132 411.016 118.812C411.016 118.484 411.02 118.144 411.028 117.792C411.06 117.056 411.212 116.444 411.484 115.956C411.764 115.46 412.148 115.092 412.636 114.852C413.132 114.604 413.704 114.48 414.352 114.48C415.008 114.48 415.58 114.604 416.068 114.852C416.564 115.092 416.952 115.46 417.232 115.956C417.512 116.444 417.664 117.056 417.688 117.792C417.704 118.144 417.712 118.484 417.712 118.812C417.712 119.132 417.704 119.468 417.688 119.82C417.664 120.564 417.516 121.184 417.244 121.68C416.98 122.168 416.604 122.532 416.116 122.772C415.628 123.004 415.04 123.12 414.352 123.12ZM414.352 122.1C414.968 122.1 415.468 121.916 415.852 121.548C416.244 121.18 416.456 120.584 416.488 119.76C416.504 119.4 416.512 119.08 416.512 118.8C416.512 118.512 416.504 118.192 416.488 117.84C416.472 117.288 416.368 116.84 416.176 116.496C415.992 116.152 415.744 115.9 415.432 115.74C415.12 115.58 414.76 115.5 414.352 115.5C413.96 115.5 413.608 115.58 413.296 115.74C412.984 115.9 412.732 116.152 412.54 116.496C412.356 116.84 412.252 117.288 412.228 117.84C412.22 118.192 412.216 118.512 412.216 118.8C412.216 119.08 412.22 119.4 412.228 119.76C412.26 120.584 412.472 121.18 412.864 121.548C413.256 121.916 413.752 122.1 414.352 122.1ZM421.273 123.12C420.785 123.12 420.353 123.064 419.977 122.952C419.601 122.84 419.285 122.688 419.029 122.496C418.773 122.296 418.569 122.068 418.417 121.812C418.273 121.556 418.189 121.28 418.165 120.984C418.157 120.912 418.177 120.856 418.225 120.816C418.281 120.776 418.345 120.756 418.417 120.756H419.017C419.089 120.756 419.153 120.772 419.209 120.804C419.273 120.836 419.321 120.904 419.353 121.008C419.449 121.328 419.657 121.592 419.977 121.8C420.297 122 420.725 122.1 421.261 122.1C421.637 122.1 421.977 122.044 422.281 121.932C422.585 121.812 422.829 121.644 423.013 121.428C423.197 121.204 423.289 120.936 423.289 120.624C423.289 120.152 423.117 119.788 422.773 119.532C422.437 119.268 421.977 119.136 421.393 119.136H420.529C420.449 119.136 420.385 119.112 420.337 119.064C420.289 119.008 420.265 118.94 420.265 118.86V118.44C420.265 118.352 420.289 118.284 420.337 118.236C420.385 118.18 420.449 118.152 420.529 118.152H421.345C421.841 118.152 422.241 118.044 422.545 117.828C422.857 117.612 423.013 117.268 423.013 116.796C423.013 116.532 422.933 116.304 422.773 116.112C422.621 115.92 422.417 115.772 422.161 115.668C421.905 115.556 421.617 115.5 421.297 115.5C420.809 115.5 420.401 115.588 420.073 115.764C419.745 115.94 419.541 116.224 419.461 116.616C419.437 116.704 419.401 116.768 419.353 116.808C419.305 116.84 419.245 116.856 419.173 116.856H418.525C418.453 116.856 418.389 116.832 418.333 116.784C418.285 116.736 418.265 116.676 418.273 116.604C418.297 116.3 418.381 116.02 418.525 115.764C418.669 115.5 418.865 115.272 419.113 115.08C419.369 114.888 419.681 114.74 420.049 114.636C420.417 114.532 420.837 114.48 421.309 114.48C421.957 114.48 422.493 114.588 422.917 114.804C423.341 115.02 423.661 115.3 423.877 115.644C424.093 115.98 424.201 116.344 424.201 116.736C424.201 116.976 424.169 117.212 424.105 117.444C424.049 117.676 423.949 117.888 423.805 118.08C423.669 118.272 423.481 118.44 423.241 118.584C423.529 118.72 423.761 118.896 423.937 119.112C424.121 119.32 424.257 119.556 424.345 119.82C424.441 120.076 424.489 120.352 424.489 120.648C424.489 121.136 424.357 121.564 424.093 121.932C423.837 122.3 423.469 122.592 422.989 122.808C422.509 123.016 421.937 123.12 421.273 123.12ZM424.982 124.668C424.902 124.668 424.834 124.644 424.778 124.596C424.73 124.548 424.706 124.48 424.706 124.392V122.196C424.706 122.116 424.73 122.052 424.778 122.004C424.834 121.948 424.902 121.92 424.982 121.92H425.234C425.426 121.92 425.594 121.832 425.738 121.656C425.882 121.48 426.002 121.212 426.098 120.852C426.202 120.484 426.278 120.02 426.326 119.46C426.374 118.9 426.398 118.236 426.398 117.468V114.876C426.398 114.796 426.422 114.732 426.47 114.684C426.526 114.628 426.594 114.6 426.674 114.6H431.354C431.442 114.6 431.51 114.628 431.558 114.684C431.614 114.732 431.642 114.8 431.642 114.888V121.92H432.23C432.318 121.92 432.386 121.948 432.434 122.004C432.49 122.052 432.518 122.116 432.518 122.196V124.392C432.518 124.472 432.49 124.536 432.434 124.584C432.386 124.64 432.318 124.668 432.23 124.668H431.618C431.53 124.668 431.462 124.64 431.414 124.584C431.366 124.536 431.342 124.472 431.342 124.392V123H425.882V124.392C425.882 124.472 425.854 124.536 425.798 124.584C425.75 124.64 425.682 124.668 425.594 124.668H424.982ZM426.77 121.92H430.466V115.68H427.55V117.612C427.55 118.748 427.482 119.664 427.346 120.36C427.218 121.056 427.026 121.576 426.77 121.92ZM433.634 123C433.554 123 433.486 122.976 433.43 122.928C433.382 122.872 433.358 122.804 433.358 122.724V122.22C433.358 122.132 433.382 122.064 433.43 122.016C433.486 121.96 433.554 121.932 433.634 121.932H434.054C434.31 121.932 434.53 121.872 434.714 121.752C434.898 121.624 435.07 121.428 435.23 121.164C435.398 120.9 435.57 120.556 435.746 120.132L438.086 114.804C438.11 114.732 438.15 114.68 438.206 114.648C438.262 114.616 438.322 114.6 438.386 114.6H439.034C439.098 114.6 439.154 114.624 439.202 114.672C439.25 114.72 439.274 114.776 439.274 114.84C439.274 114.872 439.27 114.904 439.262 114.936C439.262 114.96 439.254 114.984 439.238 115.008L436.79 120.552C436.598 120.976 436.418 121.344 436.25 121.656C436.082 121.96 435.902 122.212 435.71 122.412C435.518 122.612 435.294 122.76 435.038 122.856C434.782 122.952 434.474 123 434.114 123H433.634ZM435.674 120.96L432.398 114.984C432.374 114.936 432.362 114.892 432.362 114.852C432.362 114.788 432.386 114.732 432.434 114.684C432.49 114.628 432.55 114.6 432.614 114.6H433.286C433.358 114.6 433.418 114.616 433.466 114.648C433.514 114.68 433.554 114.732 433.586 114.804L436.31 119.76L435.674 120.96ZM439.092 123C439.028 123 438.968 122.976 438.912 122.928C438.864 122.88 438.84 122.824 438.84 122.76C438.84 122.728 438.844 122.7 438.852 122.676C438.868 122.644 438.88 122.62 438.888 122.604L441.636 118.728L439.02 114.996C438.996 114.948 438.984 114.896 438.984 114.84C438.984 114.776 439.008 114.72 439.056 114.672C439.104 114.624 439.16 114.6 439.224 114.6H439.944C440.024 114.6 440.088 114.62 440.136 114.66C440.184 114.692 440.228 114.74 440.268 114.804L442.38 117.804L444.48 114.804C444.512 114.74 444.552 114.692 444.6 114.66C444.656 114.62 444.72 114.6 444.792 114.6H445.476C445.54 114.6 445.596 114.624 445.644 114.672C445.692 114.72 445.716 114.776 445.716 114.84C445.716 114.896 445.7 114.948 445.668 114.996L443.088 118.74L445.824 122.604C445.84 122.62 445.852 122.644 445.86 122.676C445.868 122.7 445.872 122.728 445.872 122.76C445.872 122.824 445.848 122.88 445.8 122.928C445.752 122.976 445.692 123 445.62 123H444.888C444.816 123 444.752 122.98 444.696 122.94C444.648 122.9 444.604 122.856 444.564 122.808L442.332 119.688L440.112 122.808C440.072 122.856 440.028 122.9 439.98 122.94C439.932 122.98 439.868 123 439.788 123H439.092Z" fill="white"/>
<path opacity="0.5" d="M82.4206 277C82.3326 277 82.2646 276.976 82.2166 276.928C82.1686 276.872 82.1446 276.804 82.1446 276.724V268.888C82.1446 268.8 82.1686 268.732 82.2166 268.684C82.2646 268.628 82.3326 268.6 82.4206 268.6H85.7086C86.3086 268.6 86.7966 268.7 87.1726 268.9C87.5566 269.092 87.8366 269.356 88.0126 269.692C88.1966 270.028 88.2886 270.404 88.2886 270.82C88.2886 271.148 88.2326 271.432 88.1206 271.672C88.0166 271.904 87.8846 272.096 87.7246 272.248C87.5646 272.392 87.4086 272.504 87.2566 272.584C87.5686 272.736 87.8446 272.984 88.0846 273.328C88.3326 273.672 88.4566 274.088 88.4566 274.576C88.4566 275.016 88.3566 275.42 88.1566 275.788C87.9566 276.156 87.6566 276.452 87.2566 276.676C86.8646 276.892 86.3766 277 85.7926 277H82.4206ZM83.3206 276.028H85.6366C86.1566 276.028 86.5566 275.888 86.8366 275.608C87.1166 275.328 87.2566 274.984 87.2566 274.576C87.2566 274.152 87.1166 273.804 86.8366 273.532C86.5566 273.252 86.1566 273.112 85.6366 273.112H83.3206V276.028ZM83.3206 272.152H85.5286C86.0406 272.152 86.4286 272.036 86.6926 271.804C86.9566 271.564 87.0886 271.24 87.0886 270.832C87.0886 270.424 86.9566 270.112 86.6926 269.896C86.4286 269.68 86.0406 269.572 85.5286 269.572H83.3206V272.152ZM92.4523 277.12C91.7723 277.12 91.1883 277.004 90.7003 276.772C90.2123 276.532 89.8363 276.168 89.5723 275.68C89.3083 275.184 89.1603 274.564 89.1283 273.82C89.1203 273.468 89.1163 273.132 89.1163 272.812C89.1163 272.484 89.1203 272.144 89.1283 271.792C89.1603 271.056 89.3123 270.444 89.5843 269.956C89.8643 269.46 90.2483 269.092 90.7363 268.852C91.2323 268.604 91.8043 268.48 92.4523 268.48C93.1083 268.48 93.6803 268.604 94.1683 268.852C94.6643 269.092 95.0523 269.46 95.3323 269.956C95.6123 270.444 95.7643 271.056 95.7883 271.792C95.8043 272.144 95.8123 272.484 95.8123 272.812C95.8123 273.132 95.8043 273.468 95.7883 273.82C95.7643 274.564 95.6163 275.184 95.3443 275.68C95.0803 276.168 94.7043 276.532 94.2163 276.772C93.7283 277.004 93.1403 277.12 92.4523 277.12ZM92.4523 276.1C93.0683 276.1 93.5683 275.916 93.9523 275.548C94.3443 275.18 94.5563 274.584 94.5883 273.76C94.6043 273.4 94.6123 273.08 94.6123 272.8C94.6123 272.512 94.6043 272.192 94.5883 271.84C94.5723 271.288 94.4683 270.84 94.2763 270.496C94.0923 270.152 93.8443 269.9 93.5323 269.74C93.2203 269.58 92.8603 269.5 92.4523 269.5C92.0603 269.5 91.7083 269.58 91.3963 269.74C91.0843 269.9 90.8323 270.152 90.6403 270.496C90.4563 270.84 90.3523 271.288 90.3283 271.84C90.3203 272.192 90.3163 272.512 90.3163 272.8C90.3163 273.08 90.3203 273.4 90.3283 273.76C90.3603 274.584 90.5723 275.18 90.9643 275.548C91.3563 275.916 91.8523 276.1 92.4523 276.1ZM99.3734 277.12C98.8854 277.12 98.4534 277.064 98.0774 276.952C97.7014 276.84 97.3854 276.688 97.1294 276.496C96.8733 276.296 96.6693 276.068 96.5173 275.812C96.3733 275.556 96.2893 275.28 96.2653 274.984C96.2573 274.912 96.2773 274.856 96.3253 274.816C96.3813 274.776 96.4453 274.756 96.5173 274.756H97.1174C97.1893 274.756 97.2533 274.772 97.3093 274.804C97.3733 274.836 97.4214 274.904 97.4534 275.008C97.5494 275.328 97.7574 275.592 98.0774 275.8C98.3974 276 98.8254 276.1 99.3614 276.1C99.7374 276.1 100.077 276.044 100.381 275.932C100.685 275.812 100.929 275.644 101.113 275.428C101.297 275.204 101.389 274.936 101.389 274.624C101.389 274.152 101.217 273.788 100.873 273.532C100.537 273.268 100.077 273.136 99.4934 273.136H98.6294C98.5494 273.136 98.4854 273.112 98.4374 273.064C98.3894 273.008 98.3654 272.94 98.3654 272.86V272.44C98.3654 272.352 98.3894 272.284 98.4374 272.236C98.4854 272.18 98.5494 272.152 98.6294 272.152H99.4454C99.9414 272.152 100.341 272.044 100.645 271.828C100.957 271.612 101.113 271.268 101.113 270.796C101.113 270.532 101.033 270.304 100.873 270.112C100.721 269.92 100.517 269.772 100.261 269.668C100.005 269.556 99.7174 269.5 99.3974 269.5C98.9094 269.5 98.5014 269.588 98.1734 269.764C97.8454 269.94 97.6413 270.224 97.5613 270.616C97.5373 270.704 97.5014 270.768 97.4534 270.808C97.4053 270.84 97.3453 270.856 97.2733 270.856H96.6253C96.5533 270.856 96.4893 270.832 96.4333 270.784C96.3853 270.736 96.3653 270.676 96.3733 270.604C96.3973 270.3 96.4813 270.02 96.6253 269.764C96.7693 269.5 96.9654 269.272 97.2134 269.08C97.4694 268.888 97.7814 268.74 98.1494 268.636C98.5174 268.532 98.9374 268.48 99.4094 268.48C100.057 268.48 100.593 268.588 101.017 268.804C101.441 269.02 101.761 269.3 101.977 269.644C102.193 269.98 102.301 270.344 102.301 270.736C102.301 270.976 102.269 271.212 102.205 271.444C102.149 271.676 102.049 271.888 101.905 272.08C101.769 272.272 101.581 272.44 101.341 272.584C101.629 272.72 101.861 272.896 102.037 273.112C102.221 273.32 102.357 273.556 102.445 273.82C102.541 274.076 102.589 274.352 102.589 274.648C102.589 275.136 102.457 275.564 102.193 275.932C101.937 276.3 101.569 276.592 101.089 276.808C100.609 277.016 100.037 277.12 99.3734 277.12ZM103.082 278.668C103.002 278.668 102.934 278.644 102.878 278.596C102.83 278.548 102.806 278.48 102.806 278.392V276.196C102.806 276.116 102.83 276.052 102.878 276.004C102.934 275.948 103.002 275.92 103.082 275.92H103.334C103.526 275.92 103.694 275.832 103.838 275.656C103.982 275.48 104.102 275.212 104.198 274.852C104.302 274.484 104.378 274.02 104.426 273.46C104.474 272.9 104.498 272.236 104.498 271.468V268.876C104.498 268.796 104.522 268.732 104.57 268.684C104.626 268.628 104.694 268.6 104.774 268.6H109.454C109.542 268.6 109.61 268.628 109.658 268.684C109.714 268.732 109.742 268.8 109.742 268.888V275.92H110.33C110.418 275.92 110.486 275.948 110.534 276.004C110.59 276.052 110.618 276.116 110.618 276.196V278.392C110.618 278.472 110.59 278.536 110.534 278.584C110.486 278.64 110.418 278.668 110.33 278.668H109.718C109.63 278.668 109.562 278.64 109.514 278.584C109.466 278.536 109.442 278.472 109.442 278.392V277H103.982V278.392C103.982 278.472 103.954 278.536 103.898 278.584C103.85 278.64 103.782 278.668 103.694 278.668H103.082ZM104.87 275.92H108.566V269.68H105.65V271.612C105.65 272.748 105.582 273.664 105.446 274.36C105.318 275.056 105.126 275.576 104.87 275.92ZM111.735 277C111.655 277 111.587 276.976 111.531 276.928C111.483 276.872 111.459 276.804 111.459 276.724V276.22C111.459 276.132 111.483 276.064 111.531 276.016C111.587 275.96 111.655 275.932 111.735 275.932H112.155C112.411 275.932 112.631 275.872 112.815 275.752C112.999 275.624 113.171 275.428 113.331 275.164C113.499 274.9 113.671 274.556 113.847 274.132L116.187 268.804C116.211 268.732 116.251 268.68 116.307 268.648C116.363 268.616 116.423 268.6 116.487 268.6H117.135C117.199 268.6 117.255 268.624 117.303 268.672C117.351 268.72 117.375 268.776 117.375 268.84C117.375 268.872 117.371 268.904 117.363 268.936C117.363 268.96 117.355 268.984 117.339 269.008L114.891 274.552C114.699 274.976 114.519 275.344 114.351 275.656C114.183 275.96 114.003 276.212 113.811 276.412C113.619 276.612 113.395 276.76 113.139 276.856C112.883 276.952 112.575 277 112.215 277H111.735ZM113.775 274.96L110.499 268.984C110.475 268.936 110.463 268.892 110.463 268.852C110.463 268.788 110.487 268.732 110.535 268.684C110.591 268.628 110.651 268.6 110.715 268.6H111.387C111.459 268.6 111.519 268.616 111.567 268.648C111.615 268.68 111.655 268.732 111.687 268.804L114.411 273.76L113.775 274.96ZM117.193 277C117.129 277 117.069 276.976 117.013 276.928C116.965 276.88 116.941 276.824 116.941 276.76C116.941 276.728 116.945 276.7 116.953 276.676C116.969 276.644 116.981 276.62 116.989 276.604L119.737 272.728L117.121 268.996C117.097 268.948 117.085 268.896 117.085 268.84C117.085 268.776 117.109 268.72 117.157 268.672C117.205 268.624 117.261 268.6 117.325 268.6H118.045C118.125 268.6 118.189 268.62 118.237 268.66C118.285 268.692 118.329 268.74 118.369 268.804L120.481 271.804L122.581 268.804C122.613 268.74 122.653 268.692 122.701 268.66C122.757 268.62 122.821 268.6 122.893 268.6H123.577C123.641 268.6 123.697 268.624 123.745 268.672C123.793 268.72 123.817 268.776 123.817 268.84C123.817 268.896 123.801 268.948 123.769 268.996L121.189 272.74L123.925 276.604C123.941 276.62 123.953 276.644 123.961 276.676C123.969 276.7 123.973 276.728 123.973 276.76C123.973 276.824 123.949 276.88 123.901 276.928C123.853 276.976 123.793 277 123.721 277H122.989C122.917 277 122.853 276.98 122.797 276.94C122.749 276.9 122.705 276.856 122.665 276.808L120.433 273.688L118.213 276.808C118.173 276.856 118.129 276.9 118.081 276.94C118.033 276.98 117.969 277 117.889 277H117.193ZM127.068 277C126.98 277 126.912 276.972 126.864 276.916C126.816 276.86 126.792 276.792 126.792 276.712V268.888C126.792 268.8 126.816 268.732 126.864 268.684C126.92 268.628 126.988 268.6 127.068 268.6H127.692C127.772 268.6 127.836 268.628 127.884 268.684C127.94 268.732 127.968 268.8 127.968 268.888V275.092L132.444 268.768C132.468 268.736 132.5 268.7 132.54 268.66C132.588 268.62 132.656 268.6 132.744 268.6H133.332C133.412 268.6 133.476 268.628 133.524 268.684C133.58 268.732 133.608 268.8 133.608 268.888V276.724C133.608 276.804 133.58 276.872 133.524 276.928C133.476 276.976 133.412 277 133.332 277H132.72C132.64 277 132.572 276.976 132.516 276.928C132.46 276.872 132.432 276.804 132.432 276.724V270.568L127.968 276.832C127.952 276.856 127.92 276.892 127.872 276.94C127.824 276.98 127.756 277 127.668 277H127.068ZM137.51 277.12C137.022 277.12 136.59 277.064 136.214 276.952C135.838 276.84 135.522 276.688 135.266 276.496C135.01 276.296 134.806 276.068 134.654 275.812C134.51 275.556 134.426 275.28 134.402 274.984C134.394 274.912 134.414 274.856 134.462 274.816C134.518 274.776 134.582 274.756 134.654 274.756H135.254C135.326 274.756 135.39 274.772 135.446 274.804C135.51 274.836 135.558 274.904 135.59 275.008C135.686 275.328 135.894 275.592 136.214 275.8C136.534 276 136.962 276.1 137.498 276.1C137.874 276.1 138.214 276.044 138.518 275.932C138.822 275.812 139.066 275.644 139.25 275.428C139.434 275.204 139.526 274.936 139.526 274.624C139.526 274.152 139.354 273.788 139.01 273.532C138.674 273.268 138.214 273.136 137.63 273.136H136.766C136.686 273.136 136.622 273.112 136.574 273.064C136.526 273.008 136.502 272.94 136.502 272.86V272.44C136.502 272.352 136.526 272.284 136.574 272.236C136.622 272.18 136.686 272.152 136.766 272.152H137.582C138.078 272.152 138.478 272.044 138.782 271.828C139.094 271.612 139.25 271.268 139.25 270.796C139.25 270.532 139.17 270.304 139.01 270.112C138.858 269.92 138.654 269.772 138.398 269.668C138.142 269.556 137.854 269.5 137.534 269.5C137.046 269.5 136.638 269.588 136.31 269.764C135.982 269.94 135.778 270.224 135.698 270.616C135.674 270.704 135.638 270.768 135.59 270.808C135.542 270.84 135.482 270.856 135.41 270.856H134.762C134.69 270.856 134.626 270.832 134.57 270.784C134.522 270.736 134.502 270.676 134.51 270.604C134.534 270.3 134.618 270.02 134.762 269.764C134.906 269.5 135.102 269.272 135.35 269.08C135.606 268.888 135.918 268.74 136.286 268.636C136.654 268.532 137.074 268.48 137.546 268.48C138.194 268.48 138.73 268.588 139.154 268.804C139.578 269.02 139.898 269.3 140.114 269.644C140.33 269.98 140.438 270.344 140.438 270.736C140.438 270.976 140.406 271.212 140.342 271.444C140.286 271.676 140.186 271.888 140.042 272.08C139.906 272.272 139.718 272.44 139.478 272.584C139.766 272.72 139.998 272.896 140.174 273.112C140.358 273.32 140.494 273.556 140.582 273.82C140.678 274.076 140.726 274.352 140.726 274.648C140.726 275.136 140.594 275.564 140.33 275.932C140.074 276.3 139.706 276.592 139.226 276.808C138.746 277.016 138.174 277.12 137.51 277.12ZM144.209 277C144.121 277 144.053 276.976 144.005 276.928C143.957 276.872 143.933 276.804 143.933 276.724V268.888C143.933 268.8 143.957 268.732 144.005 268.684C144.053 268.628 144.121 268.6 144.209 268.6H150.125C150.213 268.6 150.281 268.628 150.329 268.684C150.385 268.732 150.413 268.8 150.413 268.888V276.724C150.413 276.804 150.385 276.872 150.329 276.928C150.281 276.976 150.213 277 150.125 277H149.513C149.433 277 149.365 276.976 149.309 276.928C149.261 276.872 149.237 276.804 149.237 276.724V269.68H145.109V276.724C145.109 276.804 145.081 276.872 145.025 276.928C144.977 276.976 144.909 277 144.821 277H144.209ZM154.78 277.12C154.1 277.12 153.516 277.004 153.028 276.772C152.54 276.532 152.164 276.168 151.9 275.68C151.636 275.184 151.488 274.564 151.456 273.82C151.448 273.468 151.444 273.132 151.444 272.812C151.444 272.484 151.448 272.144 151.456 271.792C151.488 271.056 151.64 270.444 151.912 269.956C152.192 269.46 152.576 269.092 153.064 268.852C153.56 268.604 154.132 268.48 154.78 268.48C155.436 268.48 156.008 268.604 156.496 268.852C156.992 269.092 157.38 269.46 157.66 269.956C157.94 270.444 158.092 271.056 158.116 271.792C158.132 272.144 158.14 272.484 158.14 272.812C158.14 273.132 158.132 273.468 158.116 273.82C158.092 274.564 157.944 275.184 157.672 275.68C157.408 276.168 157.032 276.532 156.544 276.772C156.056 277.004 155.468 277.12 154.78 277.12ZM154.78 276.1C155.396 276.1 155.896 275.916 156.28 275.548C156.672 275.18 156.884 274.584 156.916 273.76C156.932 273.4 156.94 273.08 156.94 272.8C156.94 272.512 156.932 272.192 156.916 271.84C156.9 271.288 156.796 270.84 156.604 270.496C156.42 270.152 156.172 269.9 155.86 269.74C155.548 269.58 155.188 269.5 154.78 269.5C154.388 269.5 154.036 269.58 153.724 269.74C153.412 269.9 153.16 270.152 152.968 270.496C152.784 270.84 152.68 271.288 152.656 271.84C152.648 272.192 152.644 272.512 152.644 272.8C152.644 273.08 152.648 273.4 152.656 273.76C152.688 274.584 152.9 275.18 153.292 275.548C153.684 275.916 154.18 276.1 154.78 276.1ZM159.445 277C159.365 277 159.297 276.976 159.241 276.928C159.193 276.872 159.169 276.804 159.169 276.724V268.888C159.169 268.8 159.193 268.732 159.241 268.684C159.297 268.628 159.365 268.6 159.445 268.6H160.045C160.141 268.6 160.213 268.624 160.261 268.672C160.309 268.72 160.337 268.76 160.345 268.792L162.889 273.64L165.445 268.792C165.461 268.76 165.489 268.72 165.529 268.672C165.577 268.624 165.649 268.6 165.745 268.6H166.333C166.421 268.6 166.489 268.628 166.537 268.684C166.593 268.732 166.621 268.8 166.621 268.888V276.724C166.621 276.804 166.593 276.872 166.537 276.928C166.489 276.976 166.421 277 166.333 277H165.745C165.665 277 165.597 276.976 165.541 276.928C165.493 276.872 165.469 276.804 165.469 276.724V270.82L163.465 274.732C163.433 274.812 163.385 274.876 163.321 274.924C163.257 274.964 163.177 274.984 163.081 274.984H162.709C162.605 274.984 162.521 274.964 162.457 274.924C162.401 274.876 162.353 274.812 162.313 274.732L160.309 270.82V276.724C160.309 276.804 160.281 276.872 160.225 276.928C160.177 276.976 160.113 277 160.033 277H159.445ZM168.252 277C168.164 277 168.096 276.976 168.048 276.928C168 276.872 167.976 276.804 167.976 276.724V268.888C167.976 268.8 168 268.732 168.048 268.684C168.096 268.628 168.164 268.6 168.252 268.6H173.208C173.296 268.6 173.364 268.628 173.412 268.684C173.46 268.732 173.484 268.8 173.484 268.888V269.344C173.484 269.432 173.46 269.5 173.412 269.548C173.364 269.596 173.296 269.62 173.208 269.62H169.128V272.248H172.944C173.032 272.248 173.1 272.276 173.148 272.332C173.196 272.38 173.22 272.448 173.22 272.536V272.98C173.22 273.06 173.196 273.128 173.148 273.184C173.1 273.232 173.032 273.256 172.944 273.256H169.128V275.98H173.304C173.392 275.98 173.46 276.004 173.508 276.052C173.556 276.1 173.58 276.168 173.58 276.256V276.724C173.58 276.804 173.556 276.872 173.508 276.928C173.46 276.976 173.392 277 173.304 277H168.252ZM183.917 278.68C183.837 278.68 183.769 278.652 183.713 278.596C183.665 278.548 183.641 278.484 183.641 278.404V277H174.809C174.721 277 174.653 276.976 174.605 276.928C174.557 276.872 174.533 276.804 174.533 276.724V268.876C174.533 268.796 174.557 268.732 174.605 268.684C174.653 268.628 174.721 268.6 174.809 268.6H175.421C175.509 268.6 175.577 268.628 175.625 268.684C175.681 268.732 175.709 268.796 175.709 268.876V275.92H178.649V268.876C178.649 268.796 178.673 268.732 178.721 268.684C178.777 268.628 178.845 268.6 178.925 268.6H179.537C179.625 268.6 179.693 268.628 179.741 268.684C179.797 268.732 179.825 268.796 179.825 268.876V275.92H182.765V268.876C182.765 268.796 182.789 268.732 182.837 268.684C182.893 268.628 182.961 268.6 183.041 268.6H183.653C183.741 268.6 183.809 268.628 183.857 268.684C183.913 268.732 183.941 268.796 183.941 268.876V275.92H184.529C184.617 275.92 184.685 275.948 184.733 276.004C184.789 276.052 184.817 276.116 184.817 276.196V278.404C184.817 278.484 184.789 278.548 184.733 278.596C184.685 278.652 184.617 278.68 184.529 278.68H183.917ZM185.82 277C185.732 277 185.664 276.976 185.616 276.928C185.568 276.872 185.544 276.804 185.544 276.724V268.888C185.544 268.8 185.568 268.732 185.616 268.684C185.664 268.628 185.732 268.6 185.82 268.6H190.776C190.864 268.6 190.932 268.628 190.98 268.684C191.028 268.732 191.052 268.8 191.052 268.888V269.344C191.052 269.432 191.028 269.5 190.98 269.548C190.932 269.596 190.864 269.62 190.776 269.62H186.696V272.248H190.512C190.6 272.248 190.668 272.276 190.716 272.332C190.764 272.38 190.788 272.448 190.788 272.536V272.98C190.788 273.06 190.764 273.128 190.716 273.184C190.668 273.232 190.6 273.256 190.512 273.256H186.696V275.98H190.872C190.96 275.98 191.028 276.004 191.076 276.052C191.124 276.1 191.148 276.168 191.148 276.256V276.724C191.148 276.804 191.124 276.872 191.076 276.928C191.028 276.976 190.96 277 190.872 277H185.82ZM192.377 277C192.289 277 192.221 276.976 192.173 276.928C192.125 276.872 192.101 276.804 192.101 276.724V268.888C192.101 268.8 192.125 268.732 192.173 268.684C192.221 268.628 192.289 268.6 192.377 268.6H192.989C193.077 268.6 193.145 268.628 193.193 268.684C193.249 268.732 193.277 268.8 193.277 268.888V272.2H197.405V268.888C197.405 268.8 197.429 268.732 197.477 268.684C197.533 268.628 197.601 268.6 197.681 268.6H198.293C198.381 268.6 198.449 268.628 198.497 268.684C198.553 268.732 198.581 268.8 198.581 268.888V276.724C198.581 276.804 198.553 276.872 198.497 276.928C198.449 276.976 198.381 277 198.293 277H197.681C197.601 277 197.533 276.976 197.477 276.928C197.429 276.872 197.405 276.804 197.405 276.724V273.28H193.277V276.724C193.277 276.804 193.249 276.872 193.193 276.928C193.145 276.976 193.077 277 192.989 277H192.377ZM200.212 277C200.124 277 200.056 276.972 200.008 276.916C199.96 276.86 199.936 276.792 199.936 276.712V268.888C199.936 268.8 199.96 268.732 200.008 268.684C200.064 268.628 200.132 268.6 200.212 268.6H200.836C200.916 268.6 200.98 268.628 201.028 268.684C201.084 268.732 201.112 268.8 201.112 268.888V275.092L205.588 268.768C205.612 268.736 205.644 268.7 205.684 268.66C205.732 268.62 205.8 268.6 205.888 268.6H206.476C206.556 268.6 206.62 268.628 206.668 268.684C206.724 268.732 206.752 268.8 206.752 268.888V276.724C206.752 276.804 206.724 276.872 206.668 276.928C206.62 276.976 206.556 277 206.476 277H205.864C205.784 277 205.716 276.976 205.66 276.928C205.604 276.872 205.576 276.804 205.576 276.724V270.568L201.112 276.832C201.096 276.856 201.064 276.892 201.016 276.94C200.968 276.98 200.9 277 200.812 277H200.212ZM213.066 277C212.986 277 212.918 276.976 212.862 276.928C212.806 276.872 212.778 276.804 212.778 276.724V273.808H210.846C210.294 273.808 209.818 273.708 209.418 273.508C209.026 273.308 208.722 273.016 208.506 272.632C208.298 272.248 208.194 271.78 208.194 271.228C208.194 270.78 208.29 270.356 208.482 269.956C208.682 269.556 208.982 269.232 209.382 268.984C209.79 268.728 210.306 268.6 210.93 268.6H213.678C213.758 268.6 213.822 268.628 213.87 268.684C213.926 268.732 213.954 268.796 213.954 268.876V276.724C213.954 276.804 213.926 276.872 213.87 276.928C213.822 276.976 213.758 277 213.678 277H213.066ZM208.278 277C208.214 277 208.158 276.976 208.11 276.928C208.062 276.88 208.038 276.824 208.038 276.76C208.038 276.72 208.05 276.676 208.074 276.628L210.21 273.268L211.362 273.448L209.322 276.676C209.274 276.756 209.218 276.832 209.154 276.904C209.09 276.968 208.99 277 208.854 277H208.278ZM211.026 272.8H212.778V269.608H211.026C210.506 269.608 210.102 269.76 209.814 270.064C209.534 270.368 209.394 270.764 209.394 271.252C209.394 271.764 209.526 272.152 209.79 272.416C210.062 272.672 210.474 272.8 211.026 272.8Z" fill="white"/>
<path opacity="0.5" d="M41.32 370C41.232 370 41.164 369.976 41.116 369.928C41.068 369.872 41.044 369.804 41.044 369.724V361.888C41.044 361.8 41.068 361.732 41.116 361.684C41.164 361.628 41.232 361.6 41.32 361.6H41.932C42.02 361.6 42.088 361.628 42.136 361.684C42.192 361.732 42.22 361.8 42.22 361.888V365.2H46.348V361.888C46.348 361.8 46.372 361.732 46.42 361.684C46.476 361.628 46.544 361.6 46.624 361.6H47.236C47.324 361.6 47.392 361.628 47.44 361.684C47.496 361.732 47.524 361.8 47.524 361.888V369.724C47.524 369.804 47.496 369.872 47.44 369.928C47.392 369.976 47.324 370 47.236 370H46.624C46.544 370 46.476 369.976 46.42 369.928C46.372 369.872 46.348 369.804 46.348 369.724V366.28H42.22V369.724C42.22 369.804 42.192 369.872 42.136 369.928C42.088 369.976 42.02 370 41.932 370H41.32ZM48.3147 370C48.2507 370 48.1947 369.976 48.1467 369.928C48.0987 369.88 48.0747 369.824 48.0747 369.76C48.0747 369.72 48.0787 369.676 48.0867 369.628L51.0627 361.864C51.0947 361.784 51.1387 361.72 51.1947 361.672C51.2507 361.624 51.3347 361.6 51.4467 361.6H52.2627C52.3667 361.6 52.4467 361.624 52.5027 361.672C52.5667 361.72 52.6147 361.784 52.6467 361.864L55.6107 369.628C55.6267 369.676 55.6347 369.72 55.6347 369.76C55.6347 369.824 55.6107 369.88 55.5627 369.928C55.5147 369.976 55.4587 370 55.3947 370H54.7827C54.6867 370 54.6147 369.976 54.5667 369.928C54.5267 369.88 54.4987 369.836 54.4827 369.796L53.8227 368.092H49.8867L49.2267 369.796C49.2187 369.836 49.1907 369.88 49.1427 369.928C49.0947 369.976 49.0227 370 48.9267 370H48.3147ZM50.2347 367.06H53.4747L51.8547 362.8L50.2347 367.06ZM56.4737 370C56.3857 370 56.3177 369.976 56.2697 369.928C56.2217 369.872 56.1977 369.804 56.1977 369.724V361.888C56.1977 361.8 56.2217 361.732 56.2697 361.684C56.3177 361.628 56.3857 361.6 56.4737 361.6H62.3898C62.4777 361.6 62.5457 361.628 62.5937 361.684C62.6497 361.732 62.6777 361.8 62.6777 361.888V369.724C62.6777 369.804 62.6497 369.872 62.5937 369.928C62.5457 369.976 62.4777 370 62.3898 370H61.7778C61.6978 370 61.6298 369.976 61.5737 369.928C61.5257 369.872 61.5017 369.804 61.5017 369.724V362.68H57.3737V369.724C57.3737 369.804 57.3457 369.872 57.2897 369.928C57.2417 369.976 57.1737 370 57.0857 370H56.4737ZM67.0444 370.12C66.3644 370.12 65.7804 370.004 65.2924 369.772C64.8044 369.532 64.4284 369.168 64.1644 368.68C63.9004 368.184 63.7524 367.564 63.7204 366.82C63.7124 366.468 63.7084 366.132 63.7084 365.812C63.7084 365.484 63.7124 365.144 63.7204 364.792C63.7524 364.056 63.9044 363.444 64.1764 362.956C64.4564 362.46 64.8404 362.092 65.3284 361.852C65.8244 361.604 66.3964 361.48 67.0444 361.48C67.7004 361.48 68.2724 361.604 68.7604 361.852C69.2564 362.092 69.6444 362.46 69.9244 362.956C70.2044 363.444 70.3564 364.056 70.3804 364.792C70.3964 365.144 70.4044 365.484 70.4044 365.812C70.4044 366.132 70.3964 366.468 70.3804 366.82C70.3564 367.564 70.2084 368.184 69.9364 368.68C69.6724 369.168 69.2964 369.532 68.8084 369.772C68.3204 370.004 67.7324 370.12 67.0444 370.12ZM67.0444 369.1C67.6604 369.1 68.1604 368.916 68.5444 368.548C68.9364 368.18 69.1484 367.584 69.1804 366.76C69.1964 366.4 69.2044 366.08 69.2044 365.8C69.2044 365.512 69.1964 365.192 69.1804 364.84C69.1644 364.288 69.0604 363.84 68.8684 363.496C68.6844 363.152 68.4364 362.9 68.1244 362.74C67.8124 362.58 67.4524 362.5 67.0444 362.5C66.6524 362.5 66.3004 362.58 65.9884 362.74C65.6764 362.9 65.4244 363.152 65.2324 363.496C65.0484 363.84 64.9444 364.288 64.9204 364.84C64.9124 365.192 64.9084 365.512 64.9084 365.8C64.9084 366.08 64.9124 366.4 64.9204 366.76C64.9524 367.584 65.1644 368.18 65.5564 368.548C65.9484 368.916 66.4444 369.1 67.0444 369.1ZM76.7883 370C76.7083 370 76.6403 369.976 76.5843 369.928C76.5363 369.872 76.5123 369.804 76.5123 369.724V362.68H73.5363V364.612C73.5363 365.572 73.4843 366.392 73.3803 367.072C73.2763 367.744 73.1163 368.292 72.9003 368.716C72.6843 369.132 72.4043 369.444 72.0603 369.652C71.7243 369.852 71.3163 369.964 70.8363 369.988C70.7563 369.996 70.6883 369.972 70.6323 369.916C70.5763 369.86 70.5483 369.788 70.5483 369.7V369.172C70.5483 369.012 70.6323 368.92 70.8003 368.896C71.0483 368.856 71.2683 368.748 71.4603 368.572C71.6603 368.396 71.8283 368.136 71.9643 367.792C72.1003 367.44 72.2043 366.992 72.2763 366.448C72.3483 365.896 72.3843 365.236 72.3843 364.468V361.876C72.3843 361.796 72.4083 361.732 72.4563 361.684C72.5123 361.628 72.5803 361.6 72.6603 361.6H77.4003C77.4883 361.6 77.5563 361.628 77.6043 361.684C77.6603 361.732 77.6883 361.8 77.6883 361.888V369.724C77.6883 369.804 77.6603 369.872 77.6043 369.928C77.5563 369.976 77.4883 370 77.4003 370H76.7883ZM79.3333 370C79.2453 370 79.1773 369.976 79.1293 369.928C79.0813 369.872 79.0573 369.804 79.0573 369.724V361.876C79.0573 361.796 79.0813 361.732 79.1293 361.684C79.1773 361.628 79.2453 361.6 79.3333 361.6H79.9453C80.0333 361.6 80.1013 361.628 80.1493 361.684C80.2053 361.732 80.2333 361.796 80.2333 361.876V364.792H82.0573C82.9373 364.792 83.6133 365.012 84.0853 365.452C84.5573 365.884 84.7933 366.52 84.7933 367.36C84.7933 367.816 84.6933 368.248 84.4933 368.656C84.3013 369.056 84.0013 369.38 83.5933 369.628C83.1933 369.876 82.6813 370 82.0573 370H79.3333ZM80.2333 368.992H81.9613C82.4813 368.992 82.8853 368.84 83.1733 368.536C83.4613 368.232 83.6053 367.832 83.6053 367.336C83.6053 366.824 83.4693 366.44 83.1973 366.184C82.9253 365.92 82.5133 365.788 81.9613 365.788H80.2333V368.992ZM85.8438 370C85.7558 370 85.6878 369.976 85.6398 369.928C85.5918 369.872 85.5678 369.804 85.5678 369.724V361.888C85.5678 361.8 85.5918 361.732 85.6398 361.684C85.6878 361.628 85.7558 361.6 85.8438 361.6H86.4558C86.5438 361.6 86.6118 361.628 86.6598 361.684C86.7158 361.732 86.7438 361.8 86.7438 361.888V365.2H90.8718V361.888C90.8718 361.8 90.8958 361.732 90.9438 361.684C90.9998 361.628 91.0678 361.6 91.1478 361.6H91.7598C91.8478 361.6 91.9158 361.628 91.9638 361.684C92.0198 361.732 92.0478 361.8 92.0478 361.888V369.724C92.0478 369.804 92.0198 369.872 91.9638 369.928C91.9158 369.976 91.8478 370 91.7598 370H91.1478C91.0678 370 90.9998 369.976 90.9438 369.928C90.8958 369.872 90.8718 369.804 90.8718 369.724V366.28H86.7438V369.724C86.7438 369.804 86.7158 369.872 86.6598 369.928C86.6118 369.976 86.5438 370 86.4558 370H85.8438ZM96.4144 370.12C95.7344 370.12 95.1504 370.004 94.6624 369.772C94.1744 369.532 93.7984 369.168 93.5344 368.68C93.2704 368.184 93.1224 367.564 93.0904 366.82C93.0824 366.468 93.0784 366.132 93.0784 365.812C93.0784 365.484 93.0824 365.144 93.0904 364.792C93.1224 364.056 93.2744 363.444 93.5464 362.956C93.8264 362.46 94.2104 362.092 94.6984 361.852C95.1944 361.604 95.7664 361.48 96.4144 361.48C97.0704 361.48 97.6424 361.604 98.1304 361.852C98.6264 362.092 99.0144 362.46 99.2944 362.956C99.5744 363.444 99.7264 364.056 99.7504 364.792C99.7664 365.144 99.7744 365.484 99.7744 365.812C99.7744 366.132 99.7664 366.468 99.7504 366.82C99.7264 367.564 99.5784 368.184 99.3064 368.68C99.0424 369.168 98.6664 369.532 98.1784 369.772C97.6904 370.004 97.1024 370.12 96.4144 370.12ZM96.4144 369.1C97.0304 369.1 97.5304 368.916 97.9144 368.548C98.3064 368.18 98.5184 367.584 98.5504 366.76C98.5664 366.4 98.5744 366.08 98.5744 365.8C98.5744 365.512 98.5664 365.192 98.5504 364.84C98.5344 364.288 98.4304 363.84 98.2384 363.496C98.0544 363.152 97.8064 362.9 97.4944 362.74C97.1824 362.58 96.8224 362.5 96.4144 362.5C96.0224 362.5 95.6704 362.58 95.3584 362.74C95.0464 362.9 94.7944 363.152 94.6024 363.496C94.4184 363.84 94.3144 364.288 94.2904 364.84C94.2824 365.192 94.2784 365.512 94.2784 365.8C94.2784 366.08 94.2824 366.4 94.2904 366.76C94.3224 367.584 94.5344 368.18 94.9264 368.548C95.3184 368.916 95.8144 369.1 96.4144 369.1ZM101.08 370C100.992 370 100.924 369.976 100.876 369.928C100.828 369.872 100.804 369.804 100.804 369.724V361.888C100.804 361.8 100.828 361.732 100.876 361.684C100.924 361.628 100.992 361.6 101.08 361.6H106.036C106.124 361.6 106.192 361.628 106.24 361.684C106.288 361.732 106.312 361.8 106.312 361.888V362.344C106.312 362.432 106.288 362.5 106.24 362.548C106.192 362.596 106.124 362.62 106.036 362.62H101.956V365.248H105.772C105.86 365.248 105.928 365.276 105.976 365.332C106.024 365.38 106.048 365.448 106.048 365.536V365.98C106.048 366.06 106.024 366.128 105.976 366.184C105.928 366.232 105.86 366.256 105.772 366.256H101.956V368.98H106.132C106.22 368.98 106.288 369.004 106.336 369.052C106.384 369.1 106.408 369.168 106.408 369.256V369.724C106.408 369.804 106.384 369.872 106.336 369.928C106.288 369.976 106.22 370 106.132 370H101.08ZM109.858 370C109.77 370 109.702 369.976 109.654 369.928C109.606 369.872 109.582 369.804 109.582 369.724V361.888C109.582 361.8 109.606 361.732 109.654 361.684C109.702 361.628 109.77 361.6 109.858 361.6H115.774C115.862 361.6 115.93 361.628 115.978 361.684C116.034 361.732 116.062 361.8 116.062 361.888V369.724C116.062 369.804 116.034 369.872 115.978 369.928C115.93 369.976 115.862 370 115.774 370H115.162C115.082 370 115.014 369.976 114.958 369.928C114.91 369.872 114.886 369.804 114.886 369.724V362.68H110.758V369.724C110.758 369.804 110.73 369.872 110.674 369.928C110.626 369.976 110.558 370 110.47 370H109.858ZM120.429 370.12C119.749 370.12 119.165 370.004 118.677 369.772C118.189 369.532 117.813 369.168 117.549 368.68C117.285 368.184 117.137 367.564 117.105 366.82C117.097 366.468 117.093 366.132 117.093 365.812C117.093 365.484 117.097 365.144 117.105 364.792C117.137 364.056 117.289 363.444 117.561 362.956C117.841 362.46 118.225 362.092 118.713 361.852C119.209 361.604 119.781 361.48 120.429 361.48C121.085 361.48 121.657 361.604 122.145 361.852C122.641 362.092 123.029 362.46 123.309 362.956C123.589 363.444 123.741 364.056 123.765 364.792C123.781 365.144 123.789 365.484 123.789 365.812C123.789 366.132 123.781 366.468 123.765 366.82C123.741 367.564 123.593 368.184 123.321 368.68C123.057 369.168 122.681 369.532 122.193 369.772C121.705 370.004 121.117 370.12 120.429 370.12ZM120.429 369.1C121.045 369.1 121.545 368.916 121.929 368.548C122.321 368.18 122.533 367.584 122.565 366.76C122.581 366.4 122.589 366.08 122.589 365.8C122.589 365.512 122.581 365.192 122.565 364.84C122.549 364.288 122.445 363.84 122.253 363.496C122.069 363.152 121.821 362.9 121.509 362.74C121.197 362.58 120.837 362.5 120.429 362.5C120.037 362.5 119.685 362.58 119.373 362.74C119.061 362.9 118.809 363.152 118.617 363.496C118.433 363.84 118.329 364.288 118.305 364.84C118.297 365.192 118.293 365.512 118.293 365.8C118.293 366.08 118.297 366.4 118.305 366.76C118.337 367.584 118.549 368.18 118.941 368.548C119.333 368.916 119.829 369.1 120.429 369.1ZM125.094 370C125.006 370 124.938 369.976 124.89 369.928C124.842 369.872 124.818 369.804 124.818 369.724V361.888C124.818 361.8 124.842 361.732 124.89 361.684C124.938 361.628 125.006 361.6 125.094 361.6H125.706C125.794 361.6 125.862 361.628 125.91 361.684C125.966 361.732 125.994 361.8 125.994 361.888V365.2H127.35L129.486 361.792C129.526 361.728 129.578 361.68 129.642 361.648C129.706 361.616 129.79 361.6 129.894 361.6H130.542C130.63 361.6 130.694 361.624 130.734 361.672C130.774 361.72 130.794 361.776 130.794 361.84C130.794 361.888 130.774 361.94 130.734 361.996L128.43 365.668L130.962 369.58C130.986 369.612 130.998 369.656 130.998 369.712C130.998 369.792 130.97 369.86 130.914 369.916C130.866 369.972 130.802 370 130.722 370H130.038C129.95 370 129.882 369.984 129.834 369.952C129.794 369.912 129.758 369.868 129.726 369.82L127.398 366.28H125.994V369.724C125.994 369.804 125.966 369.872 125.91 369.928C125.862 369.976 125.794 370 125.706 370H125.094ZM132.05 370C131.962 370 131.894 369.976 131.846 369.928C131.798 369.872 131.774 369.804 131.774 369.724V361.888C131.774 361.8 131.798 361.732 131.846 361.684C131.894 361.628 131.962 361.6 132.05 361.6H135.098C135.69 361.6 136.202 361.696 136.634 361.888C137.074 362.08 137.414 362.368 137.654 362.752C137.894 363.128 138.014 363.6 138.014 364.168C138.014 364.736 137.894 365.208 137.654 365.584C137.414 365.96 137.074 366.244 136.634 366.436C136.202 366.628 135.69 366.724 135.098 366.724H132.974V369.724C132.974 369.804 132.946 369.872 132.89 369.928C132.842 369.976 132.774 370 132.686 370H132.05ZM132.962 365.716H135.038C135.63 365.716 136.074 365.584 136.37 365.32C136.666 365.056 136.814 364.672 136.814 364.168C136.814 363.672 136.67 363.288 136.382 363.016C136.094 362.744 135.646 362.608 135.038 362.608H132.962V365.716ZM139.029 370C138.941 370 138.873 369.976 138.825 369.928C138.777 369.872 138.753 369.804 138.753 369.724V361.876C138.753 361.796 138.777 361.732 138.825 361.684C138.873 361.628 138.941 361.6 139.029 361.6H139.641C139.729 361.6 139.797 361.628 139.845 361.684C139.901 361.732 139.929 361.796 139.929 361.876V364.792H141.465C142.337 364.792 143.009 365.012 143.481 365.452C143.961 365.884 144.201 366.52 144.201 367.36C144.201 367.816 144.101 368.248 143.901 368.656C143.709 369.056 143.409 369.38 143.001 369.628C142.593 369.876 142.081 370 141.465 370H139.029ZM139.929 368.992H141.369C141.889 368.992 142.289 368.84 142.569 368.536C142.857 368.232 143.001 367.832 143.001 367.336C143.001 366.824 142.865 366.44 142.593 366.184C142.321 365.92 141.913 365.788 141.369 365.788H139.929V368.992ZM145.629 370C145.541 370 145.473 369.976 145.425 369.928C145.377 369.872 145.353 369.804 145.353 369.724V361.876C145.353 361.796 145.377 361.732 145.425 361.684C145.473 361.628 145.541 361.6 145.629 361.6H146.265C146.345 361.6 146.409 361.628 146.457 361.684C146.513 361.732 146.541 361.796 146.541 361.876V369.724C146.541 369.804 146.513 369.872 146.457 369.928C146.409 369.976 146.345 370 146.265 370H145.629ZM150.024 370C149.944 370 149.876 369.976 149.82 369.928C149.772 369.872 149.748 369.804 149.748 369.724V362.668H147.444C147.364 362.668 147.296 362.644 147.24 362.596C147.192 362.54 147.168 362.472 147.168 362.392V361.888C147.168 361.8 147.192 361.732 147.24 361.684C147.296 361.628 147.364 361.6 147.444 361.6H153.228C153.316 361.6 153.384 361.628 153.432 361.684C153.488 361.732 153.516 361.8 153.516 361.888V362.392C153.516 362.472 153.488 362.54 153.432 362.596C153.384 362.644 153.316 362.668 153.228 362.668H150.936V369.724C150.936 369.804 150.908 369.872 150.852 369.928C150.804 369.976 150.736 370 150.648 370H150.024ZM154.417 370C154.329 370 154.261 369.972 154.213 369.916C154.165 369.86 154.141 369.792 154.141 369.712V361.888C154.141 361.8 154.165 361.732 154.213 361.684C154.269 361.628 154.337 361.6 154.417 361.6H155.041C155.121 361.6 155.185 361.628 155.233 361.684C155.289 361.732 155.317 361.8 155.317 361.888V368.092L159.793 361.768C159.817 361.736 159.849 361.7 159.889 361.66C159.937 361.62 160.005 361.6 160.093 361.6H160.681C160.761 361.6 160.825 361.628 160.873 361.684C160.929 361.732 160.957 361.8 160.957 361.888V369.724C160.957 369.804 160.929 369.872 160.873 369.928C160.825 369.976 160.761 370 160.681 370H160.069C159.989 370 159.921 369.976 159.865 369.928C159.809 369.872 159.781 369.804 159.781 369.724V363.568L155.317 369.832C155.301 369.856 155.269 369.892 155.221 369.94C155.173 369.98 155.105 370 155.017 370H154.417ZM162.603 370C162.515 370 162.447 369.976 162.399 369.928C162.351 369.872 162.327 369.804 162.327 369.724V361.888C162.327 361.8 162.351 361.732 162.399 361.684C162.447 361.628 162.515 361.6 162.603 361.6H167.559C167.647 361.6 167.715 361.628 167.763 361.684C167.811 361.732 167.835 361.8 167.835 361.888V362.344C167.835 362.432 167.811 362.5 167.763 362.548C167.715 362.596 167.647 362.62 167.559 362.62H163.479V365.248H167.295C167.383 365.248 167.451 365.276 167.499 365.332C167.547 365.38 167.571 365.448 167.571 365.536V365.98C167.571 366.06 167.547 366.128 167.499 366.184C167.451 366.232 167.383 366.256 167.295 366.256H163.479V368.98H167.655C167.743 368.98 167.811 369.004 167.859 369.052C167.907 369.1 167.931 369.168 167.931 369.256V369.724C167.931 369.804 167.907 369.872 167.859 369.928C167.811 369.976 167.743 370 167.655 370H162.603Z" fill="white"/>
<path opacity="0.5" d="M188.081 123C188.001 123 187.933 122.976 187.877 122.928C187.829 122.872 187.805 122.804 187.805 122.724V115.668H185.501C185.421 115.668 185.353 115.644 185.297 115.596C185.249 115.54 185.225 115.472 185.225 115.392V114.888C185.225 114.8 185.249 114.732 185.297 114.684C185.353 114.628 185.421 114.6 185.501 114.6H191.285C191.373 114.6 191.441 114.628 191.489 114.684C191.545 114.732 191.573 114.8 191.573 114.888V115.392C191.573 115.472 191.545 115.54 191.489 115.596C191.441 115.644 191.373 115.668 191.285 115.668H188.993V122.724C188.993 122.804 188.965 122.872 188.909 122.928C188.861 122.976 188.793 123 188.705 123H188.081ZM192.474 123C192.386 123 192.318 122.976 192.27 122.928C192.222 122.872 192.198 122.804 192.198 122.724V114.888C192.198 114.8 192.222 114.732 192.27 114.684C192.318 114.628 192.386 114.6 192.474 114.6H197.43C197.518 114.6 197.586 114.628 197.634 114.684C197.682 114.732 197.706 114.8 197.706 114.888V115.344C197.706 115.432 197.682 115.5 197.634 115.548C197.586 115.596 197.518 115.62 197.43 115.62H193.35V118.248H197.166C197.254 118.248 197.322 118.276 197.37 118.332C197.418 118.38 197.442 118.448 197.442 118.536V118.98C197.442 119.06 197.418 119.128 197.37 119.184C197.322 119.232 197.254 119.256 197.166 119.256H193.35V121.98H197.526C197.614 121.98 197.682 122.004 197.73 122.052C197.778 122.1 197.802 122.168 197.802 122.256V122.724C197.802 122.804 197.778 122.872 197.73 122.928C197.682 122.976 197.614 123 197.526 123H192.474ZM199.032 123C198.944 123 198.876 122.976 198.828 122.928C198.78 122.872 198.756 122.804 198.756 122.724V114.888C198.756 114.8 198.78 114.732 198.828 114.684C198.876 114.628 198.944 114.6 199.032 114.6H204.948C205.036 114.6 205.104 114.628 205.152 114.684C205.208 114.732 205.236 114.8 205.236 114.888V122.724C205.236 122.804 205.208 122.872 205.152 122.928C205.104 122.976 205.036 123 204.948 123H204.336C204.256 123 204.188 122.976 204.132 122.928C204.084 122.872 204.06 122.804 204.06 122.724V115.68H199.932V122.724C199.932 122.804 199.904 122.872 199.848 122.928C199.8 122.976 199.732 123 199.644 123H199.032ZM212.062 123C211.982 123 211.914 122.976 211.858 122.928C211.81 122.872 211.786 122.804 211.786 122.724V115.68H208.81V117.612C208.81 118.572 208.758 119.392 208.654 120.072C208.55 120.744 208.39 121.292 208.174 121.716C207.958 122.132 207.678 122.444 207.334 122.652C206.998 122.852 206.59 122.964 206.11 122.988C206.03 122.996 205.962 122.972 205.906 122.916C205.85 122.86 205.822 122.788 205.822 122.7V122.172C205.822 122.012 205.906 121.92 206.074 121.896C206.322 121.856 206.542 121.748 206.734 121.572C206.934 121.396 207.102 121.136 207.238 120.792C207.374 120.44 207.478 119.992 207.55 119.448C207.622 118.896 207.658 118.236 207.658 117.468V114.876C207.658 114.796 207.682 114.732 207.73 114.684C207.786 114.628 207.854 114.6 207.934 114.6H212.674C212.762 114.6 212.83 114.628 212.878 114.684C212.934 114.732 212.962 114.8 212.962 114.888V122.724C212.962 122.804 212.934 122.872 212.878 122.928C212.83 122.976 212.762 123 212.674 123H212.062ZM214.607 123C214.519 123 214.451 122.976 214.403 122.928C214.355 122.872 214.331 122.804 214.331 122.724V114.876C214.331 114.796 214.355 114.732 214.403 114.684C214.451 114.628 214.519 114.6 214.607 114.6H215.219C215.307 114.6 215.375 114.628 215.423 114.684C215.479 114.732 215.507 114.796 215.507 114.876V117.792H217.043C217.915 117.792 218.587 118.012 219.059 118.452C219.539 118.884 219.779 119.52 219.779 120.36C219.779 120.816 219.679 121.248 219.479 121.656C219.287 122.056 218.987 122.38 218.579 122.628C218.171 122.876 217.659 123 217.043 123H214.607ZM215.507 121.992H216.947C217.467 121.992 217.867 121.84 218.147 121.536C218.435 121.232 218.579 120.832 218.579 120.336C218.579 119.824 218.443 119.44 218.171 119.184C217.899 118.92 217.491 118.788 216.947 118.788H215.507V121.992ZM221.207 123C221.119 123 221.051 122.976 221.003 122.928C220.955 122.872 220.931 122.804 220.931 122.724V114.876C220.931 114.796 220.955 114.732 221.003 114.684C221.051 114.628 221.119 114.6 221.207 114.6H221.843C221.923 114.6 221.987 114.628 222.035 114.684C222.091 114.732 222.119 114.796 222.119 114.876V122.724C222.119 122.804 222.091 122.872 222.035 122.928C221.987 122.976 221.923 123 221.843 123H221.207ZM223.766 123C223.678 123 223.61 122.972 223.562 122.916C223.514 122.86 223.49 122.792 223.49 122.712V114.888C223.49 114.8 223.514 114.732 223.562 114.684C223.618 114.628 223.686 114.6 223.766 114.6H224.39C224.47 114.6 224.534 114.628 224.582 114.684C224.638 114.732 224.666 114.8 224.666 114.888V121.092L229.142 114.768C229.166 114.736 229.198 114.7 229.238 114.66C229.286 114.62 229.354 114.6 229.442 114.6H230.03C230.11 114.6 230.174 114.628 230.222 114.684C230.278 114.732 230.306 114.8 230.306 114.888V122.724C230.306 122.804 230.278 122.872 230.222 122.928C230.174 122.976 230.11 123 230.03 123H229.418C229.338 123 229.27 122.976 229.214 122.928C229.158 122.872 229.13 122.804 229.13 122.724V116.568L224.666 122.832C224.65 122.856 224.618 122.892 224.57 122.94C224.522 122.98 224.454 123 224.366 123H223.766ZM226.862 114.12C226.382 114.12 226.006 114.048 225.734 113.904C225.47 113.76 225.282 113.576 225.17 113.352C225.058 113.12 225.002 112.88 225.002 112.632C225.002 112.568 225.022 112.516 225.062 112.476C225.102 112.428 225.158 112.404 225.23 112.404H225.65C225.722 112.404 225.778 112.428 225.818 112.476C225.858 112.516 225.878 112.568 225.878 112.632C225.878 112.752 225.902 112.868 225.95 112.98C226.006 113.092 226.106 113.188 226.25 113.268C226.394 113.34 226.598 113.376 226.862 113.376C227.134 113.376 227.338 113.34 227.474 113.268C227.618 113.188 227.714 113.092 227.762 112.98C227.818 112.868 227.846 112.752 227.846 112.632C227.846 112.568 227.866 112.516 227.906 112.476C227.946 112.428 228.002 112.404 228.074 112.404H228.494C228.566 112.404 228.622 112.428 228.662 112.476C228.702 112.516 228.722 112.568 228.722 112.632C228.722 112.88 228.666 113.12 228.554 113.352C228.442 113.576 228.25 113.76 227.978 113.904C227.714 114.048 227.342 114.12 226.862 114.12ZM234.174 123C234.086 123 234.018 122.976 233.97 122.928C233.922 122.872 233.898 122.804 233.898 122.724V114.888C233.898 114.8 233.922 114.732 233.97 114.684C234.018 114.628 234.086 114.6 234.174 114.6H237.462C238.062 114.6 238.55 114.7 238.926 114.9C239.31 115.092 239.59 115.356 239.766 115.692C239.95 116.028 240.042 116.404 240.042 116.82C240.042 117.148 239.986 117.432 239.874 117.672C239.77 117.904 239.638 118.096 239.478 118.248C239.318 118.392 239.162 118.504 239.01 118.584C239.322 118.736 239.598 118.984 239.838 119.328C240.086 119.672 240.21 120.088 240.21 120.576C240.21 121.016 240.11 121.42 239.91 121.788C239.71 122.156 239.41 122.452 239.01 122.676C238.618 122.892 238.13 123 237.546 123H234.174ZM235.074 122.028H237.39C237.91 122.028 238.31 121.888 238.59 121.608C238.87 121.328 239.01 120.984 239.01 120.576C239.01 120.152 238.87 119.804 238.59 119.532C238.31 119.252 237.91 119.112 237.39 119.112H235.074V122.028ZM235.074 118.152H237.282C237.794 118.152 238.182 118.036 238.446 117.804C238.71 117.564 238.842 117.24 238.842 116.832C238.842 116.424 238.71 116.112 238.446 115.896C238.182 115.68 237.794 115.572 237.282 115.572H235.074V118.152ZM244.206 123.12C243.526 123.12 242.942 123.004 242.454 122.772C241.966 122.532 241.59 122.168 241.326 121.68C241.062 121.184 240.914 120.564 240.882 119.82C240.874 119.468 240.87 119.132 240.87 118.812C240.87 118.484 240.874 118.144 240.882 117.792C240.914 117.056 241.066 116.444 241.338 115.956C241.618 115.46 242.002 115.092 242.49 114.852C242.986 114.604 243.558 114.48 244.206 114.48C244.862 114.48 245.434 114.604 245.922 114.852C246.418 115.092 246.806 115.46 247.086 115.956C247.366 116.444 247.518 117.056 247.542 117.792C247.558 118.144 247.566 118.484 247.566 118.812C247.566 119.132 247.558 119.468 247.542 119.82C247.518 120.564 247.37 121.184 247.098 121.68C246.834 122.168 246.458 122.532 245.97 122.772C245.482 123.004 244.894 123.12 244.206 123.12ZM244.206 122.1C244.822 122.1 245.322 121.916 245.706 121.548C246.098 121.18 246.31 120.584 246.342 119.76C246.358 119.4 246.366 119.08 246.366 118.8C246.366 118.512 246.358 118.192 246.342 117.84C246.326 117.288 246.222 116.84 246.03 116.496C245.846 116.152 245.598 115.9 245.286 115.74C244.974 115.58 244.614 115.5 244.206 115.5C243.814 115.5 243.462 115.58 243.15 115.74C242.838 115.9 242.586 116.152 242.394 116.496C242.21 116.84 242.106 117.288 242.082 117.84C242.074 118.192 242.07 118.512 242.07 118.8C242.07 119.08 242.074 119.4 242.082 119.76C242.114 120.584 242.326 121.18 242.718 121.548C243.11 121.916 243.606 122.1 244.206 122.1ZM251.127 123.12C250.639 123.12 250.207 123.064 249.831 122.952C249.455 122.84 249.139 122.688 248.883 122.496C248.627 122.296 248.423 122.068 248.271 121.812C248.127 121.556 248.043 121.28 248.019 120.984C248.011 120.912 248.031 120.856 248.079 120.816C248.135 120.776 248.199 120.756 248.271 120.756H248.871C248.943 120.756 249.007 120.772 249.063 120.804C249.127 120.836 249.175 120.904 249.207 121.008C249.303 121.328 249.511 121.592 249.831 121.8C250.151 122 250.579 122.1 251.115 122.1C251.491 122.1 251.831 122.044 252.135 121.932C252.439 121.812 252.683 121.644 252.867 121.428C253.051 121.204 253.143 120.936 253.143 120.624C253.143 120.152 252.971 119.788 252.627 119.532C252.291 119.268 251.831 119.136 251.247 119.136H250.383C250.303 119.136 250.239 119.112 250.191 119.064C250.143 119.008 250.119 118.94 250.119 118.86V118.44C250.119 118.352 250.143 118.284 250.191 118.236C250.239 118.18 250.303 118.152 250.383 118.152H251.199C251.695 118.152 252.095 118.044 252.399 117.828C252.711 117.612 252.867 117.268 252.867 116.796C252.867 116.532 252.787 116.304 252.627 116.112C252.475 115.92 252.271 115.772 252.015 115.668C251.759 115.556 251.471 115.5 251.151 115.5C250.663 115.5 250.255 115.588 249.927 115.764C249.599 115.94 249.395 116.224 249.315 116.616C249.291 116.704 249.255 116.768 249.207 116.808C249.159 116.84 249.099 116.856 249.027 116.856H248.379C248.307 116.856 248.243 116.832 248.187 116.784C248.139 116.736 248.119 116.676 248.127 116.604C248.151 116.3 248.235 116.02 248.379 115.764C248.523 115.5 248.719 115.272 248.967 115.08C249.223 114.888 249.535 114.74 249.903 114.636C250.271 114.532 250.691 114.48 251.163 114.48C251.811 114.48 252.347 114.588 252.771 114.804C253.195 115.02 253.515 115.3 253.731 115.644C253.947 115.98 254.055 116.344 254.055 116.736C254.055 116.976 254.023 117.212 253.959 117.444C253.903 117.676 253.803 117.888 253.659 118.08C253.523 118.272 253.335 118.44 253.095 118.584C253.383 118.72 253.615 118.896 253.791 119.112C253.975 119.32 254.111 119.556 254.199 119.82C254.295 120.076 254.343 120.352 254.343 120.648C254.343 121.136 254.211 121.564 253.947 121.932C253.691 122.3 253.323 122.592 252.843 122.808C252.363 123.016 251.791 123.12 251.127 123.12ZM254.836 124.668C254.756 124.668 254.688 124.644 254.632 124.596C254.584 124.548 254.56 124.48 254.56 124.392V122.196C254.56 122.116 254.584 122.052 254.632 122.004C254.688 121.948 254.756 121.92 254.836 121.92H255.088C255.28 121.92 255.448 121.832 255.592 121.656C255.736 121.48 255.856 121.212 255.952 120.852C256.056 120.484 256.132 120.02 256.18 119.46C256.228 118.9 256.252 118.236 256.252 117.468V114.876C256.252 114.796 256.276 114.732 256.324 114.684C256.38 114.628 256.448 114.6 256.528 114.6H261.208C261.296 114.6 261.364 114.628 261.412 114.684C261.468 114.732 261.496 114.8 261.496 114.888V121.92H262.084C262.172 121.92 262.24 121.948 262.288 122.004C262.344 122.052 262.372 122.116 262.372 122.196V124.392C262.372 124.472 262.344 124.536 262.288 124.584C262.24 124.64 262.172 124.668 262.084 124.668H261.472C261.384 124.668 261.316 124.64 261.268 124.584C261.22 124.536 261.196 124.472 261.196 124.392V123H255.736V124.392C255.736 124.472 255.708 124.536 255.652 124.584C255.604 124.64 255.536 124.668 255.448 124.668H254.836ZM256.624 121.92H260.32V115.68H257.404V117.612C257.404 118.748 257.336 119.664 257.2 120.36C257.072 121.056 256.88 121.576 256.624 121.92ZM263.488 123C263.408 123 263.34 122.976 263.284 122.928C263.236 122.872 263.212 122.804 263.212 122.724V122.22C263.212 122.132 263.236 122.064 263.284 122.016C263.34 121.96 263.408 121.932 263.488 121.932H263.908C264.164 121.932 264.384 121.872 264.568 121.752C264.752 121.624 264.924 121.428 265.084 121.164C265.252 120.9 265.424 120.556 265.6 120.132L267.94 114.804C267.964 114.732 268.004 114.68 268.06 114.648C268.116 114.616 268.176 114.6 268.24 114.6H268.888C268.952 114.6 269.008 114.624 269.056 114.672C269.104 114.72 269.128 114.776 269.128 114.84C269.128 114.872 269.124 114.904 269.116 114.936C269.116 114.96 269.108 114.984 269.092 115.008L266.644 120.552C266.452 120.976 266.272 121.344 266.104 121.656C265.936 121.96 265.756 122.212 265.564 122.412C265.372 122.612 265.148 122.76 264.892 122.856C264.636 122.952 264.328 123 263.968 123H263.488ZM265.528 120.96L262.252 114.984C262.228 114.936 262.216 114.892 262.216 114.852C262.216 114.788 262.24 114.732 262.288 114.684C262.344 114.628 262.404 114.6 262.468 114.6H263.14C263.212 114.6 263.272 114.616 263.32 114.648C263.368 114.68 263.408 114.732 263.44 114.804L266.164 119.76L265.528 120.96ZM268.946 123C268.882 123 268.822 122.976 268.766 122.928C268.718 122.88 268.694 122.824 268.694 122.76C268.694 122.728 268.698 122.7 268.706 122.676C268.722 122.644 268.734 122.62 268.742 122.604L271.49 118.728L268.874 114.996C268.85 114.948 268.838 114.896 268.838 114.84C268.838 114.776 268.862 114.72 268.91 114.672C268.958 114.624 269.014 114.6 269.078 114.6H269.798C269.878 114.6 269.942 114.62 269.99 114.66C270.038 114.692 270.082 114.74 270.122 114.804L272.234 117.804L274.334 114.804C274.366 114.74 274.406 114.692 274.454 114.66C274.51 114.62 274.574 114.6 274.646 114.6H275.33C275.394 114.6 275.45 114.624 275.498 114.672C275.546 114.72 275.57 114.776 275.57 114.84C275.57 114.896 275.554 114.948 275.522 114.996L272.942 118.74L275.678 122.604C275.694 122.62 275.706 122.644 275.714 122.676C275.722 122.7 275.726 122.728 275.726 122.76C275.726 122.824 275.702 122.88 275.654 122.928C275.606 122.976 275.546 123 275.474 123H274.742C274.67 123 274.606 122.98 274.55 122.94C274.502 122.9 274.458 122.856 274.418 122.808L272.186 119.688L269.966 122.808C269.926 122.856 269.882 122.9 269.834 122.94C269.786 122.98 269.722 123 269.642 123H268.946Z" fill="white"/>
</svg>
